<svg xmlns="http://www.w3.org/2000/svg" version="1.1" xmlns:xlink="http://www.w3.org/1999/xlink" xmlns:svgjs="http://svgjs.com/svgjs" width="1440" height="560" preserveAspectRatio="none" viewBox="0 0 1440 560"><g mask="url(&quot;#SvgjsMask1399&quot;)" fill="none"><rect width="1440" height="560" x="0" y="0" fill="rgba(25, 30, 41, 1)"></rect><path d="M65.35 -19.16L151.09 30.34L151.09 129.34L65.35 178.84L-20.39 129.34L-20.39 30.34zM65.35 277.84L151.09 327.34L151.09 426.34L65.35 475.84L-20.39 426.34L-20.39 327.34zM65.35 574.84L151.09 624.34L151.09 723.34L65.35 772.84L-20.39 723.34L-20.39 624.34zM236.83 277.84L322.57 327.34L322.57 426.34L236.83 475.84L151.09 426.34L151.09 327.34zM236.83 574.84L322.57 624.34L322.57 723.34L236.83 772.84L151.09 723.34L151.09 624.34zM408.31 277.84L494.04 327.34L494.04 426.34L408.31 475.84L322.57 426.34L322.57 327.34zM494.04 426.34L579.78 475.84L579.78 574.84L494.04 624.34L408.31 574.84L408.31 475.84zM408.31 574.84L494.04 624.34L494.04 723.34L408.31 772.84L322.57 723.34L322.57 624.34zM579.78 -19.16L665.52 30.34L665.52 129.34L579.78 178.84L494.04 129.34L494.04 30.34zM665.52 129.34L751.26 178.84L751.26 277.84L665.52 327.34L579.78 277.84L579.78 178.84zM665.52 426.34L751.26 475.84L751.26 574.84L665.52 624.34L579.78 574.84L579.78 475.84zM837 129.34L922.74 178.84L922.74 277.84L837 327.34L751.26 277.84L751.26 178.84zM751.26 277.84L837 327.34L837 426.34L751.26 475.84L665.52 426.34L665.52 327.34zM751.26 574.84L837 624.34L837 723.34L751.26 772.84L665.52 723.34L665.52 624.34zM1008.48 129.34L1094.22 178.84L1094.22 277.84L1008.48 327.34L922.74 277.84L922.74 178.84zM1179.96 129.34L1265.7 178.84L1265.7 277.84L1179.96 327.34L1094.22 277.84L1094.22 178.84zM1351.43 129.34L1437.17 178.84L1437.17 277.84L1351.43 327.34L1265.7 277.84L1265.7 178.84zM1265.7 277.84L1351.43 327.34L1351.43 426.34L1265.7 475.84L1179.96 426.34L1179.96 327.34zM1351.43 426.34L1437.17 475.84L1437.17 574.84L1351.43 624.34L1265.7 574.84L1265.7 475.84zM1437.17 277.84L1522.91 327.34L1522.91 426.34L1437.17 475.84L1351.43 426.34L1351.43 327.34z" stroke="rgba(19, 45, 70, 1)" stroke-width="2"></path><path d="M55.45 -19.16 a9.9 9.9 0 1 0 19.8 0 a9.9 9.9 0 1 0 -19.8 0zM141.19 30.34 a9.9 9.9 0 1 0 19.8 0 a9.9 9.9 0 1 0 -19.8 0zM141.19 129.34 a9.9 9.9 0 1 0 19.8 0 a9.9 9.9 0 1 0 -19.8 0zM55.45 178.84 a9.9 9.9 0 1 0 19.8 0 a9.9 9.9 0 1 0 -19.8 0zM-30.29 129.34 a9.9 9.9 0 1 0 19.8 0 a9.9 9.9 0 1 0 -19.8 0zM-30.29 30.34 a9.9 9.9 0 1 0 19.8 0 a9.9 9.9 0 1 0 -19.8 0zM55.45 277.84 a9.9 9.9 0 1 0 19.8 0 a9.9 9.9 0 1 0 -19.8 0zM141.19 327.34 a9.9 9.9 0 1 0 19.8 0 a9.9 9.9 0 1 0 -19.8 0zM141.19 426.34 a9.9 9.9 0 1 0 19.8 0 a9.9 9.9 0 1 0 -19.8 0zM55.45 475.84 a9.9 9.9 0 1 0 19.8 0 a9.9 9.9 0 1 0 -19.8 0zM-30.29 426.34 a9.9 9.9 0 1 0 19.8 0 a9.9 9.9 0 1 0 -19.8 0zM-30.29 327.34 a9.9 9.9 0 1 0 19.8 0 a9.9 9.9 0 1 0 -19.8 0zM55.45 574.84 a9.9 9.9 0 1 0 19.8 0 a9.9 9.9 0 1 0 -19.8 0zM141.19 624.34 a9.9 9.9 0 1 0 19.8 0 a9.9 9.9 0 1 0 -19.8 0zM141.19 723.34 a9.9 9.9 0 1 0 19.8 0 a9.9 9.9 0 1 0 -19.8 0zM55.45 772.84 a9.9 9.9 0 1 0 19.8 0 a9.9 9.9 0 1 0 -19.8 0zM-30.29 723.34 a9.9 9.9 0 1 0 19.8 0 a9.9 9.9 0 1 0 -19.8 0zM-30.29 624.34 a9.9 9.9 0 1 0 19.8 0 a9.9 9.9 0 1 0 -19.8 0zM226.93 277.84 a9.9 9.9 0 1 0 19.8 0 a9.9 9.9 0 1 0 -19.8 0zM312.67 327.34 a9.9 9.9 0 1 0 19.8 0 a9.9 9.9 0 1 0 -19.8 0zM312.67 426.34 a9.9 9.9 0 1 0 19.8 0 a9.9 9.9 0 1 0 -19.8 0zM226.93 475.84 a9.9 9.9 0 1 0 19.8 0 a9.9 9.9 0 1 0 -19.8 0zM226.93 574.84 a9.9 9.9 0 1 0 19.8 0 a9.9 9.9 0 1 0 -19.8 0zM312.67 624.34 a9.9 9.9 0 1 0 19.8 0 a9.9 9.9 0 1 0 -19.8 0zM312.67 723.34 a9.9 9.9 0 1 0 19.8 0 a9.9 9.9 0 1 0 -19.8 0zM226.93 772.84 a9.9 9.9 0 1 0 19.8 0 a9.9 9.9 0 1 0 -19.8 0zM398.41 277.84 a9.9 9.9 0 1 0 19.8 0 a9.9 9.9 0 1 0 -19.8 0zM484.14 327.34 a9.9 9.9 0 1 0 19.8 0 a9.9 9.9 0 1 0 -19.8 0zM484.14 426.34 a9.9 9.9 0 1 0 19.8 0 a9.9 9.9 0 1 0 -19.8 0zM398.41 475.84 a9.9 9.9 0 1 0 19.8 0 a9.9 9.9 0 1 0 -19.8 0zM569.88 475.84 a9.9 9.9 0 1 0 19.8 0 a9.9 9.9 0 1 0 -19.8 0zM569.88 574.84 a9.9 9.9 0 1 0 19.8 0 a9.9 9.9 0 1 0 -19.8 0zM484.14 624.34 a9.9 9.9 0 1 0 19.8 0 a9.9 9.9 0 1 0 -19.8 0zM398.41 574.84 a9.9 9.9 0 1 0 19.8 0 a9.9 9.9 0 1 0 -19.8 0zM484.14 723.34 a9.9 9.9 0 1 0 19.8 0 a9.9 9.9 0 1 0 -19.8 0zM398.41 772.84 a9.9 9.9 0 1 0 19.8 0 a9.9 9.9 0 1 0 -19.8 0zM569.88 -19.16 a9.9 9.9 0 1 0 19.8 0 a9.9 9.9 0 1 0 -19.8 0zM655.62 30.34 a9.9 9.9 0 1 0 19.8 0 a9.9 9.9 0 1 0 -19.8 0zM655.62 129.34 a9.9 9.9 0 1 0 19.8 0 a9.9 9.9 0 1 0 -19.8 0zM569.88 178.84 a9.9 9.9 0 1 0 19.8 0 a9.9 9.9 0 1 0 -19.8 0zM484.14 129.34 a9.9 9.9 0 1 0 19.8 0 a9.9 9.9 0 1 0 -19.8 0zM484.14 30.34 a9.9 9.9 0 1 0 19.8 0 a9.9 9.9 0 1 0 -19.8 0zM741.36 178.84 a9.9 9.9 0 1 0 19.8 0 a9.9 9.9 0 1 0 -19.8 0zM741.36 277.84 a9.9 9.9 0 1 0 19.8 0 a9.9 9.9 0 1 0 -19.8 0zM655.62 327.34 a9.9 9.9 0 1 0 19.8 0 a9.9 9.9 0 1 0 -19.8 0zM569.88 277.84 a9.9 9.9 0 1 0 19.8 0 a9.9 9.9 0 1 0 -19.8 0zM655.62 426.34 a9.9 9.9 0 1 0 19.8 0 a9.9 9.9 0 1 0 -19.8 0zM741.36 475.84 a9.9 9.9 0 1 0 19.8 0 a9.9 9.9 0 1 0 -19.8 0zM741.36 574.84 a9.9 9.9 0 1 0 19.8 0 a9.9 9.9 0 1 0 -19.8 0zM655.62 624.34 a9.9 9.9 0 1 0 19.8 0 a9.9 9.9 0 1 0 -19.8 0zM827.1 129.34 a9.9 9.9 0 1 0 19.8 0 a9.9 9.9 0 1 0 -19.8 0zM912.84 178.84 a9.9 9.9 0 1 0 19.8 0 a9.9 9.9 0 1 0 -19.8 0zM912.84 277.84 a9.9 9.9 0 1 0 19.8 0 a9.9 9.9 0 1 0 -19.8 0zM827.1 327.34 a9.9 9.9 0 1 0 19.8 0 a9.9 9.9 0 1 0 -19.8 0zM827.1 426.34 a9.9 9.9 0 1 0 19.8 0 a9.9 9.9 0 1 0 -19.8 0zM827.1 624.34 a9.9 9.9 0 1 0 19.8 0 a9.9 9.9 0 1 0 -19.8 0zM827.1 723.34 a9.9 9.9 0 1 0 19.8 0 a9.9 9.9 0 1 0 -19.8 0zM741.36 772.84 a9.9 9.9 0 1 0 19.8 0 a9.9 9.9 0 1 0 -19.8 0zM655.62 723.34 a9.9 9.9 0 1 0 19.8 0 a9.9 9.9 0 1 0 -19.8 0zM998.58 129.34 a9.9 9.9 0 1 0 19.8 0 a9.9 9.9 0 1 0 -19.8 0zM1084.32 178.84 a9.9 9.9 0 1 0 19.8 0 a9.9 9.9 0 1 0 -19.8 0zM1084.32 277.84 a9.9 9.9 0 1 0 19.8 0 a9.9 9.9 0 1 0 -19.8 0zM998.58 327.34 a9.9 9.9 0 1 0 19.8 0 a9.9 9.9 0 1 0 -19.8 0zM1170.06 129.34 a9.9 9.9 0 1 0 19.8 0 a9.9 9.9 0 1 0 -19.8 0zM1255.8 178.84 a9.9 9.9 0 1 0 19.8 0 a9.9 9.9 0 1 0 -19.8 0zM1255.8 277.84 a9.9 9.9 0 1 0 19.8 0 a9.9 9.9 0 1 0 -19.8 0zM1170.06 327.34 a9.9 9.9 0 1 0 19.8 0 a9.9 9.9 0 1 0 -19.8 0zM1341.53 129.34 a9.9 9.9 0 1 0 19.8 0 a9.9 9.9 0 1 0 -19.8 0zM1427.27 178.84 a9.9 9.9 0 1 0 19.8 0 a9.9 9.9 0 1 0 -19.8 0zM1427.27 277.84 a9.9 9.9 0 1 0 19.8 0 a9.9 9.9 0 1 0 -19.8 0zM1341.53 327.34 a9.9 9.9 0 1 0 19.8 0 a9.9 9.9 0 1 0 -19.8 0zM1341.53 426.34 a9.9 9.9 0 1 0 19.8 0 a9.9 9.9 0 1 0 -19.8 0zM1255.8 475.84 a9.9 9.9 0 1 0 19.8 0 a9.9 9.9 0 1 0 -19.8 0zM1170.06 426.34 a9.9 9.9 0 1 0 19.8 0 a9.9 9.9 0 1 0 -19.8 0zM1427.27 475.84 a9.9 9.9 0 1 0 19.8 0 a9.9 9.9 0 1 0 -19.8 0zM1427.27 574.84 a9.9 9.9 0 1 0 19.8 0 a9.9 9.9 0 1 0 -19.8 0zM1341.53 624.34 a9.9 9.9 0 1 0 19.8 0 a9.9 9.9 0 1 0 -19.8 0zM1255.8 574.84 a9.9 9.9 0 1 0 19.8 0 a9.9 9.9 0 1 0 -19.8 0zM1513.01 327.34 a9.9 9.9 0 1 0 19.8 0 a9.9 9.9 0 1 0 -19.8 0zM1513.01 426.34 a9.9 9.9 0 1 0 19.8 0 a9.9 9.9 0 1 0 -19.8 0z" fill="rgba(19, 45, 70, 1)"></path><path d="M54.22 60.06L92.32 82.06L92.32 126.06L54.22 148.06L16.11 126.06L16.11 82.06zM16.11 126.06L54.22 148.06L54.22 192.06L16.11 214.06L-22 192.06L-22 148.06zM16.11 258.06L54.22 280.06L54.22 324.06L16.11 346.06L-22 324.06L-22 280.06zM16.11 390.06L54.22 412.06L54.22 456.06L16.11 478.06L-22 456.06L-22 412.06zM92.32 -5.94L130.43 16.06L130.43 60.06L92.32 82.06L54.22 60.06L54.22 16.06zM92.32 258.06L130.43 280.06L130.43 324.06L92.32 346.06L54.22 324.06L54.22 280.06zM206.64 60.06L244.75 82.06L244.75 126.06L206.64 148.06L168.53 126.06L168.53 82.06zM168.53 258.06L206.64 280.06L206.64 324.06L168.53 346.06L130.43 324.06L130.43 280.06zM168.53 390.06L206.64 412.06L206.64 456.06L168.53 478.06L130.43 456.06L130.43 412.06zM282.85 60.06L320.96 82.06L320.96 126.06L282.85 148.06L244.75 126.06L244.75 82.06zM244.75 126.06L282.85 148.06L282.85 192.06L244.75 214.06L206.64 192.06L206.64 148.06zM244.75 390.06L282.85 412.06L282.85 456.06L244.75 478.06L206.64 456.06L206.64 412.06zM320.96 126.06L359.07 148.06L359.07 192.06L320.96 214.06L282.85 192.06L282.85 148.06zM320.96 390.06L359.07 412.06L359.07 456.06L320.96 478.06L282.85 456.06L282.85 412.06zM397.17 126.06L435.28 148.06L435.28 192.06L397.17 214.06L359.07 192.06L359.07 148.06zM397.17 390.06L435.28 412.06L435.28 456.06L397.17 478.06L359.07 456.06L359.07 412.06zM473.38 126.06L511.49 148.06L511.49 192.06L473.38 214.06L435.28 192.06L435.28 148.06zM511.49 324.06L549.6 346.06L549.6 390.06L511.49 412.06L473.38 390.06L473.38 346.06zM473.38 390.06L511.49 412.06L511.49 456.06L473.38 478.06L435.28 456.06L435.28 412.06zM473.38 522.06L511.49 544.06L511.49 588.06L473.38 610.06L435.28 588.06L435.28 544.06zM549.6 -5.94L587.7 16.06L587.7 60.06L549.6 82.06L511.49 60.06L511.49 16.06zM549.6 126.06L587.7 148.06L587.7 192.06L549.6 214.06L511.49 192.06L511.49 148.06zM549.6 258.06L587.7 280.06L587.7 324.06L549.6 346.06L511.49 324.06L511.49 280.06zM587.7 324.06L625.81 346.06L625.81 390.06L587.7 412.06L549.6 390.06L549.6 346.06zM625.81 126.06L663.92 148.06L663.92 192.06L625.81 214.06L587.7 192.06L587.7 148.06zM663.92 192.06L702.02 214.06L702.02 258.06L663.92 280.06L625.81 258.06L625.81 214.06zM702.02 -5.94L740.13 16.06L740.13 60.06L702.02 82.06L663.92 60.06L663.92 16.06zM740.13 192.06L778.23 214.06L778.23 258.06L740.13 280.06L702.02 258.06L702.02 214.06zM702.02 522.06L740.13 544.06L740.13 588.06L702.02 610.06L663.92 588.06L663.92 544.06zM778.23 -5.94L816.34 16.06L816.34 60.06L778.23 82.06L740.13 60.06L740.13 16.06zM816.34 60.06L854.45 82.06L854.45 126.06L816.34 148.06L778.23 126.06L778.23 82.06zM778.23 390.06L816.34 412.06L816.34 456.06L778.23 478.06L740.13 456.06L740.13 412.06zM778.23 522.06L816.34 544.06L816.34 588.06L778.23 610.06L740.13 588.06L740.13 544.06zM892.55 60.06L930.66 82.06L930.66 126.06L892.55 148.06L854.45 126.06L854.45 82.06zM892.55 456.06L930.66 478.06L930.66 522.06L892.55 544.06L854.45 522.06L854.45 478.06zM968.76 60.06L1006.87 82.06L1006.87 126.06L968.76 148.06L930.66 126.06L930.66 82.06zM968.76 324.06L1006.87 346.06L1006.87 390.06L968.76 412.06L930.66 390.06L930.66 346.06zM1006.87 -5.94L1044.98 16.06L1044.98 60.06L1006.87 82.06L968.76 60.06L968.76 16.06zM1044.98 60.06L1083.08 82.06L1083.08 126.06L1044.98 148.06L1006.87 126.06L1006.87 82.06zM1044.98 192.06L1083.08 214.06L1083.08 258.06L1044.98 280.06L1006.87 258.06L1006.87 214.06zM1044.98 456.06L1083.08 478.06L1083.08 522.06L1044.98 544.06L1006.87 522.06L1006.87 478.06zM1121.19 60.06L1159.3 82.06L1159.3 126.06L1121.19 148.06L1083.08 126.06L1083.08 82.06zM1121.19 324.06L1159.3 346.06L1159.3 390.06L1121.19 412.06L1083.08 390.06L1083.08 346.06zM1121.19 456.06L1159.3 478.06L1159.3 522.06L1121.19 544.06L1083.08 522.06L1083.08 478.06zM1083.08 522.06L1121.19 544.06L1121.19 588.06L1083.08 610.06L1044.98 588.06L1044.98 544.06zM1159.3 -5.94L1197.4 16.06L1197.4 60.06L1159.3 82.06L1121.19 60.06L1121.19 16.06zM1197.4 192.06L1235.51 214.06L1235.51 258.06L1197.4 280.06L1159.3 258.06L1159.3 214.06zM1197.4 456.06L1235.51 478.06L1235.51 522.06L1197.4 544.06L1159.3 522.06L1159.3 478.06zM1273.61 60.06L1311.72 82.06L1311.72 126.06L1273.61 148.06L1235.51 126.06L1235.51 82.06zM1273.61 192.06L1311.72 214.06L1311.72 258.06L1273.61 280.06L1235.51 258.06L1235.51 214.06zM1235.51 390.06L1273.61 412.06L1273.61 456.06L1235.51 478.06L1197.4 456.06L1197.4 412.06zM1311.72 -5.94L1349.83 16.06L1349.83 60.06L1311.72 82.06L1273.61 60.06L1273.61 16.06zM1349.83 456.06L1387.93 478.06L1387.93 522.06L1349.83 544.06L1311.72 522.06L1311.72 478.06z" stroke="rgba(6, 80, 156, 0.93)" stroke-width="2"></path></g><defs><mask id="SvgjsMask1399"><rect width="1440" height="560" fill="#ffffff"></rect></mask></defs></svg>