<svg xmlns="http://www.w3.org/2000/svg" version="1.1" xmlns:xlink="http://www.w3.org/1999/xlink" xmlns:svgjs="http://svgjs.com/svgjs" width="1080" height="720" preserveAspectRatio="none" viewBox="0 0 1080 720"><g mask="url(&quot;#SvgjsMask2460&quot;)" fill="none"><rect width="1080" height="720" x="0" y="0" fill="url(#SvgjsRadialGradient2461)"></rect><g mask="url(&quot;#SvgjsMask2462&quot;)"><path d="M136.5 367.5L157.5 388.5L178.5 388.5L199.5 388.5L220.5 367.5M241.5 346.5L262.5 367.5L283.5 367.5L304.5 367.5L325.5 367.5L346.5 367.5M283.5 346.5L304.5 346.5M178.5 367.5L199.5 367.5M-10.5 367.5L10.5 367.5L31.5 367.5L52.5 367.5L73.5 367.5L94.5 367.5L115.5 367.5L136.5 367.5L157.5 367.5L178.5 367.5L199.5 346.5L220.5 346.5L241.5 346.5L262.5 346.5L283.5 346.5L304.5 325.5L325.5 304.5" stroke="rgba(255, 255, 255, 1)" stroke-width="3.5"></path><path d="M320.25 304.5 a5.25 5.25 0 1 0 10.5 0 a5.25 5.25 0 1 0 -10.5 0zM215.25 367.5 a5.25 5.25 0 1 0 10.5 0 a5.25 5.25 0 1 0 -10.5 0zM341.25 367.5 a5.25 5.25 0 1 0 10.5 0 a5.25 5.25 0 1 0 -10.5 0zM299.25 346.5 a5.25 5.25 0 1 0 10.5 0 a5.25 5.25 0 1 0 -10.5 0zM194.25 367.5 a5.25 5.25 0 1 0 10.5 0 a5.25 5.25 0 1 0 -10.5 0z" fill="rgba(255, 255, 255, 1)"></path><path d="M472.5 304.5L493.5 283.5L514.5 283.5L535.5 262.5M514.5 304.5L535.5 304.5M388.5 283.5L409.5 304.5L430.5 325.5L451.5 325.5L472.5 325.5M451.5 304.5L472.5 283.5L493.5 262.5L514.5 262.5M157.5 346.5L178.5 346.5M409.5 283.5L430.5 283.5L451.5 283.5L472.5 262.5M346.5 283.5L367.5 304.5L388.5 304.5L409.5 325.5L430.5 346.5L451.5 346.5M-10.5 346.5L10.5 346.5L31.5 346.5L52.5 346.5L73.5 346.5L94.5 346.5L115.5 346.5L136.5 346.5L157.5 346.5L178.5 325.5L199.5 325.5L220.5 325.5L241.5 325.5L262.5 325.5L283.5 325.5L304.5 304.5L325.5 283.5L346.5 283.5L367.5 283.5L388.5 283.5L409.5 283.5L430.5 304.5L451.5 304.5L472.5 304.5L493.5 304.5L514.5 304.5L535.5 283.5L556.5 262.5" stroke="rgba(255, 255, 255, 1)" stroke-width="3.5"></path><path d="M551.25 262.5 a5.25 5.25 0 1 0 10.5 0 a5.25 5.25 0 1 0 -10.5 0zM530.25 262.5 a5.25 5.25 0 1 0 10.5 0 a5.25 5.25 0 1 0 -10.5 0zM530.25 304.5 a5.25 5.25 0 1 0 10.5 0 a5.25 5.25 0 1 0 -10.5 0zM467.25 325.5 a5.25 5.25 0 1 0 10.5 0 a5.25 5.25 0 1 0 -10.5 0zM509.25 262.5 a5.25 5.25 0 1 0 10.5 0 a5.25 5.25 0 1 0 -10.5 0zM173.25 346.5 a5.25 5.25 0 1 0 10.5 0 a5.25 5.25 0 1 0 -10.5 0zM467.25 262.5 a5.25 5.25 0 1 0 10.5 0 a5.25 5.25 0 1 0 -10.5 0zM446.25 346.5 a5.25 5.25 0 1 0 10.5 0 a5.25 5.25 0 1 0 -10.5 0z" fill="rgba(255, 255, 255, 1)"></path><path d="M283.5 409.5L304.5 388.5L325.5 388.5L346.5 388.5L367.5 388.5L388.5 388.5L409.5 388.5L430.5 388.5M199.5 409.5L220.5 409.5L241.5 409.5M577.5 451.5L598.5 430.5L619.5 430.5L640.5 430.5L661.5 430.5M535.5 451.5L556.5 430.5L577.5 409.5L598.5 388.5L619.5 388.5M514.5 451.5L535.5 430.5L556.5 409.5L577.5 388.5L598.5 367.5M409.5 409.5L430.5 409.5M493.5 430.5L514.5 430.5L535.5 409.5L556.5 388.5M241.5 388.5L262.5 388.5L283.5 388.5M-10.5 388.5L10.5 388.5L31.5 388.5L52.5 388.5L73.5 388.5L94.5 388.5L115.5 388.5L136.5 409.5L157.5 409.5L178.5 409.5L199.5 409.5L220.5 388.5L241.5 388.5L262.5 409.5L283.5 409.5L304.5 409.5L325.5 409.5L346.5 409.5L367.5 409.5L388.5 409.5L409.5 409.5L430.5 430.5L451.5 430.5L472.5 430.5L493.5 430.5L514.5 451.5L535.5 451.5L556.5 451.5L577.5 451.5L598.5 451.5L619.5 451.5L640.5 451.5" stroke="rgba(255, 255, 255, 1)" stroke-width="3.5"></path><path d="M635.25 451.5 a5.25 5.25 0 1 0 10.5 0 a5.25 5.25 0 1 0 -10.5 0zM425.25 388.5 a5.25 5.25 0 1 0 10.5 0 a5.25 5.25 0 1 0 -10.5 0zM236.25 409.5 a5.25 5.25 0 1 0 10.5 0 a5.25 5.25 0 1 0 -10.5 0zM656.25 430.5 a5.25 5.25 0 1 0 10.5 0 a5.25 5.25 0 1 0 -10.5 0zM614.25 388.5 a5.25 5.25 0 1 0 10.5 0 a5.25 5.25 0 1 0 -10.5 0zM593.25 367.5 a5.25 5.25 0 1 0 10.5 0 a5.25 5.25 0 1 0 -10.5 0zM425.25 409.5 a5.25 5.25 0 1 0 10.5 0 a5.25 5.25 0 1 0 -10.5 0zM551.25 388.5 a5.25 5.25 0 1 0 10.5 0 a5.25 5.25 0 1 0 -10.5 0zM278.25 388.5 a5.25 5.25 0 1 0 10.5 0 a5.25 5.25 0 1 0 -10.5 0z" fill="rgba(255, 255, 255, 1)"></path><path d="M-10.5 325.5L10.5 325.5L31.5 325.5L52.5 325.5L73.5 325.5L94.5 325.5L115.5 325.5L136.5 325.5" stroke="rgba(255, 255, 255, 1)" stroke-width="3.5"></path><path d="M131.25 325.5 a5.25 5.25 0 1 0 10.5 0 a5.25 5.25 0 1 0 -10.5 0z" fill="rgba(255, 255, 255, 1)"></path><path d="M745.5 493.5L766.5 472.5L787.5 472.5L808.5 451.5L829.5 451.5M388.5 430.5L409.5 430.5M52.5 409.5L73.5 430.5L94.5 430.5L115.5 430.5M766.5 493.5L787.5 514.5L808.5 514.5L829.5 514.5M682.5 472.5L703.5 472.5L724.5 472.5L745.5 472.5M661.5 472.5L682.5 451.5L703.5 451.5M724.5 493.5L745.5 514.5L766.5 514.5M703.5 493.5L724.5 514.5L745.5 535.5M-10.5 409.5L10.5 409.5L31.5 409.5L52.5 409.5L73.5 409.5L94.5 409.5L115.5 409.5L136.5 430.5L157.5 430.5L178.5 430.5L199.5 430.5L220.5 430.5L241.5 430.5L262.5 430.5L283.5 430.5L304.5 430.5L325.5 430.5L346.5 430.5L367.5 430.5L388.5 430.5L409.5 451.5L430.5 451.5L451.5 451.5L472.5 451.5L493.5 451.5L514.5 472.5L535.5 472.5L556.5 472.5L577.5 472.5L598.5 472.5L619.5 472.5L640.5 472.5L661.5 472.5L682.5 472.5L703.5 493.5L724.5 493.5L745.5 493.5L766.5 493.5L787.5 493.5" stroke="rgba(255, 255, 255, 1)" stroke-width="3.5"></path><path d="M782.25 493.5 a5.25 5.25 0 1 0 10.5 0 a5.25 5.25 0 1 0 -10.5 0zM824.25 451.5 a5.25 5.25 0 1 0 10.5 0 a5.25 5.25 0 1 0 -10.5 0zM404.25 430.5 a5.25 5.25 0 1 0 10.5 0 a5.25 5.25 0 1 0 -10.5 0zM110.25 430.5 a5.25 5.25 0 1 0 10.5 0 a5.25 5.25 0 1 0 -10.5 0zM824.25 514.5 a5.25 5.25 0 1 0 10.5 0 a5.25 5.25 0 1 0 -10.5 0zM740.25 472.5 a5.25 5.25 0 1 0 10.5 0 a5.25 5.25 0 1 0 -10.5 0zM698.25 451.5 a5.25 5.25 0 1 0 10.5 0 a5.25 5.25 0 1 0 -10.5 0zM761.25 514.5 a5.25 5.25 0 1 0 10.5 0 a5.25 5.25 0 1 0 -10.5 0zM740.25 535.5 a5.25 5.25 0 1 0 10.5 0 a5.25 5.25 0 1 0 -10.5 0z" fill="rgba(255, 255, 255, 1)"></path><path d="M220.5 304.5L241.5 283.5M283.5 283.5L304.5 262.5M262.5 304.5L283.5 304.5M-10.5 304.5L10.5 304.5L31.5 304.5L52.5 304.5L73.5 304.5L94.5 304.5L115.5 304.5L136.5 304.5L157.5 304.5L178.5 304.5L199.5 304.5L220.5 304.5L241.5 304.5L262.5 304.5L283.5 283.5L304.5 283.5" stroke="rgba(255, 255, 255, 1)" stroke-width="3.5"></path><path d="M299.25 283.5 a5.25 5.25 0 1 0 10.5 0 a5.25 5.25 0 1 0 -10.5 0zM236.25 283.5 a5.25 5.25 0 1 0 10.5 0 a5.25 5.25 0 1 0 -10.5 0zM299.25 262.5 a5.25 5.25 0 1 0 10.5 0 a5.25 5.25 0 1 0 -10.5 0zM278.25 304.5 a5.25 5.25 0 1 0 10.5 0 a5.25 5.25 0 1 0 -10.5 0z" fill="rgba(255, 255, 255, 1)"></path><path d="M31.5 430.5L52.5 430.5M-10.5 430.5L10.5 430.5L31.5 430.5L52.5 451.5L73.5 451.5L94.5 451.5L115.5 451.5L136.5 451.5" stroke="rgba(255, 255, 255, 1)" stroke-width="3.5"></path><path d="M131.25 451.5 a5.25 5.25 0 1 0 10.5 0 a5.25 5.25 0 1 0 -10.5 0zM47.25 430.5 a5.25 5.25 0 1 0 10.5 0 a5.25 5.25 0 1 0 -10.5 0z" fill="rgba(255, 255, 255, 1)"></path><path d="M31.5 283.5L52.5 262.5L73.5 262.5L94.5 262.5M199.5 283.5L220.5 283.5M241.5 262.5L262.5 262.5L283.5 262.5L304.5 241.5M-10.5 283.5L10.5 283.5L31.5 283.5L52.5 283.5L73.5 283.5L94.5 283.5L115.5 283.5L136.5 283.5L157.5 283.5L178.5 283.5L199.5 283.5L220.5 262.5L241.5 262.5L262.5 283.5" stroke="rgba(255, 255, 255, 1)" stroke-width="3.5"></path><path d="M257.25 283.5 a5.25 5.25 0 1 0 10.5 0 a5.25 5.25 0 1 0 -10.5 0zM89.25 262.5 a5.25 5.25 0 1 0 10.5 0 a5.25 5.25 0 1 0 -10.5 0zM215.25 283.5 a5.25 5.25 0 1 0 10.5 0 a5.25 5.25 0 1 0 -10.5 0zM299.25 241.5 a5.25 5.25 0 1 0 10.5 0 a5.25 5.25 0 1 0 -10.5 0z" fill="rgba(255, 255, 255, 1)"></path><path d="M346.5 451.5L367.5 472.5M409.5 472.5L430.5 493.5L451.5 493.5L472.5 493.5L493.5 493.5M283.5 451.5L304.5 472.5L325.5 472.5L346.5 493.5L367.5 493.5M136.5 472.5L157.5 472.5M577.5 493.5L598.5 514.5M535.5 493.5L556.5 514.5L577.5 514.5L598.5 535.5L619.5 535.5L640.5 535.5L661.5 535.5L682.5 535.5M262.5 451.5L283.5 472.5L304.5 493.5M640.5 493.5L661.5 514.5L682.5 514.5L703.5 514.5M-10.5 451.5L10.5 451.5L31.5 451.5L52.5 472.5L73.5 472.5L94.5 472.5L115.5 472.5L136.5 472.5L157.5 451.5L178.5 451.5L199.5 451.5L220.5 451.5L241.5 451.5L262.5 451.5L283.5 451.5L304.5 451.5L325.5 451.5L346.5 451.5L367.5 451.5L388.5 451.5L409.5 472.5L430.5 472.5L451.5 472.5L472.5 472.5L493.5 472.5L514.5 493.5L535.5 493.5L556.5 493.5L577.5 493.5L598.5 493.5L619.5 493.5L640.5 493.5L661.5 493.5" stroke="rgba(255, 255, 255, 1)" stroke-width="3.5"></path><path d="M656.25 493.5 a5.25 5.25 0 1 0 10.5 0 a5.25 5.25 0 1 0 -10.5 0zM362.25 472.5 a5.25 5.25 0 1 0 10.5 0 a5.25 5.25 0 1 0 -10.5 0zM488.25 493.5 a5.25 5.25 0 1 0 10.5 0 a5.25 5.25 0 1 0 -10.5 0zM362.25 493.5 a5.25 5.25 0 1 0 10.5 0 a5.25 5.25 0 1 0 -10.5 0zM152.25 472.5 a5.25 5.25 0 1 0 10.5 0 a5.25 5.25 0 1 0 -10.5 0zM593.25 514.5 a5.25 5.25 0 1 0 10.5 0 a5.25 5.25 0 1 0 -10.5 0zM677.25 535.5 a5.25 5.25 0 1 0 10.5 0 a5.25 5.25 0 1 0 -10.5 0zM299.25 493.5 a5.25 5.25 0 1 0 10.5 0 a5.25 5.25 0 1 0 -10.5 0zM698.25 514.5 a5.25 5.25 0 1 0 10.5 0 a5.25 5.25 0 1 0 -10.5 0z" fill="rgba(255, 255, 255, 1)"></path><path d="M178.5 220.5L199.5 241.5L220.5 241.5L241.5 241.5L262.5 241.5M136.5 220.5L157.5 241.5L178.5 241.5L199.5 262.5M115.5 220.5L136.5 241.5L157.5 262.5M94.5 220.5L115.5 241.5L136.5 262.5M-10.5 262.5L10.5 241.5L31.5 241.5L52.5 241.5L73.5 220.5L94.5 220.5L115.5 220.5L136.5 220.5L157.5 220.5L178.5 220.5L199.5 220.5L220.5 220.5L241.5 220.5L262.5 220.5L283.5 220.5L304.5 220.5L325.5 220.5" stroke="rgba(255, 255, 255, 1)" stroke-width="3.5"></path><path d="M320.25 220.5 a5.25 5.25 0 1 0 10.5 0 a5.25 5.25 0 1 0 -10.5 0zM257.25 241.5 a5.25 5.25 0 1 0 10.5 0 a5.25 5.25 0 1 0 -10.5 0zM194.25 262.5 a5.25 5.25 0 1 0 10.5 0 a5.25 5.25 0 1 0 -10.5 0zM152.25 262.5 a5.25 5.25 0 1 0 10.5 0 a5.25 5.25 0 1 0 -10.5 0zM131.25 262.5 a5.25 5.25 0 1 0 10.5 0 a5.25 5.25 0 1 0 -10.5 0z" fill="rgba(255, 255, 255, 1)"></path><path d="M157.5 493.5L178.5 493.5L199.5 493.5M241.5 472.5L262.5 472.5M-10.5 472.5L10.5 472.5L31.5 472.5L52.5 493.5L73.5 493.5L94.5 493.5L115.5 493.5L136.5 493.5L157.5 493.5L178.5 472.5L199.5 472.5L220.5 472.5L241.5 472.5L262.5 493.5" stroke="rgba(255, 255, 255, 1)" stroke-width="3.5"></path><path d="M257.25 493.5 a5.25 5.25 0 1 0 10.5 0 a5.25 5.25 0 1 0 -10.5 0zM194.25 493.5 a5.25 5.25 0 1 0 10.5 0 a5.25 5.25 0 1 0 -10.5 0zM257.25 472.5 a5.25 5.25 0 1 0 10.5 0 a5.25 5.25 0 1 0 -10.5 0z" fill="rgba(255, 255, 255, 1)"></path><path d="M367.5 199.5L388.5 220.5L409.5 220.5L430.5 241.5L451.5 241.5L472.5 241.5L493.5 241.5L514.5 241.5M619.5 262.5L640.5 283.5L661.5 283.5L682.5 283.5L703.5 283.5L724.5 304.5M556.5 241.5L577.5 220.5L598.5 220.5M598.5 241.5L619.5 241.5L640.5 241.5L661.5 220.5L682.5 220.5L703.5 220.5L724.5 220.5L745.5 220.5L766.5 220.5L787.5 199.5L808.5 199.5M409.5 199.5L430.5 199.5L451.5 199.5L472.5 199.5M493.5 220.5L514.5 199.5L535.5 178.5L556.5 178.5M346.5 199.5L367.5 220.5L388.5 241.5L409.5 241.5L430.5 262.5L451.5 262.5M514.5 220.5L535.5 220.5L556.5 220.5L577.5 199.5L598.5 178.5L619.5 178.5L640.5 178.5L661.5 178.5L682.5 178.5L703.5 178.5L724.5 178.5L745.5 178.5L766.5 178.5M-10.5 241.5L10.5 220.5L31.5 199.5L52.5 199.5L73.5 199.5L94.5 199.5L115.5 199.5L136.5 199.5L157.5 199.5L178.5 199.5L199.5 199.5L220.5 199.5L241.5 199.5L262.5 199.5L283.5 199.5L304.5 199.5L325.5 199.5L346.5 199.5L367.5 199.5L388.5 199.5L409.5 199.5L430.5 220.5L451.5 220.5L472.5 220.5L493.5 220.5L514.5 220.5L535.5 241.5L556.5 241.5L577.5 241.5L598.5 241.5L619.5 262.5L640.5 262.5L661.5 262.5L682.5 241.5L703.5 241.5" stroke="rgba(255, 255, 255, 1)" stroke-width="3.5"></path><path d="M698.25 241.5 a5.25 5.25 0 1 0 10.5 0 a5.25 5.25 0 1 0 -10.5 0zM509.25 241.5 a5.25 5.25 0 1 0 10.5 0 a5.25 5.25 0 1 0 -10.5 0zM719.25 304.5 a5.25 5.25 0 1 0 10.5 0 a5.25 5.25 0 1 0 -10.5 0zM593.25 220.5 a5.25 5.25 0 1 0 10.5 0 a5.25 5.25 0 1 0 -10.5 0zM803.25 199.5 a5.25 5.25 0 1 0 10.5 0 a5.25 5.25 0 1 0 -10.5 0zM467.25 199.5 a5.25 5.25 0 1 0 10.5 0 a5.25 5.25 0 1 0 -10.5 0zM551.25 178.5 a5.25 5.25 0 1 0 10.5 0 a5.25 5.25 0 1 0 -10.5 0zM446.25 262.5 a5.25 5.25 0 1 0 10.5 0 a5.25 5.25 0 1 0 -10.5 0zM761.25 178.5 a5.25 5.25 0 1 0 10.5 0 a5.25 5.25 0 1 0 -10.5 0z" fill="rgba(255, 255, 255, 1)"></path><path d="M346.5 514.5L367.5 535.5L388.5 535.5L409.5 556.5L430.5 556.5L451.5 556.5M178.5 514.5L199.5 535.5L220.5 535.5L241.5 535.5L262.5 535.5M409.5 535.5L430.5 514.5M304.5 514.5L325.5 535.5L346.5 535.5L367.5 556.5M283.5 514.5L304.5 535.5L325.5 556.5L346.5 556.5L367.5 577.5M-10.5 493.5L10.5 493.5L31.5 493.5L52.5 514.5L73.5 514.5L94.5 514.5L115.5 514.5L136.5 514.5L157.5 514.5L178.5 514.5L199.5 514.5L220.5 514.5L241.5 514.5L262.5 514.5L283.5 514.5L304.5 514.5L325.5 514.5L346.5 514.5L367.5 514.5L388.5 514.5L409.5 535.5L430.5 535.5L451.5 535.5" stroke="rgba(255, 255, 255, 1)" stroke-width="3.5"></path><path d="M446.25 535.5 a5.25 5.25 0 1 0 10.5 0 a5.25 5.25 0 1 0 -10.5 0zM446.25 556.5 a5.25 5.25 0 1 0 10.5 0 a5.25 5.25 0 1 0 -10.5 0zM257.25 535.5 a5.25 5.25 0 1 0 10.5 0 a5.25 5.25 0 1 0 -10.5 0zM425.25 514.5 a5.25 5.25 0 1 0 10.5 0 a5.25 5.25 0 1 0 -10.5 0zM362.25 556.5 a5.25 5.25 0 1 0 10.5 0 a5.25 5.25 0 1 0 -10.5 0zM362.25 577.5 a5.25 5.25 0 1 0 10.5 0 a5.25 5.25 0 1 0 -10.5 0z" fill="rgba(255, 255, 255, 1)"></path><path d="M430.5 157.5L451.5 136.5L472.5 136.5L493.5 136.5L514.5 136.5L535.5 136.5M283.5 178.5L304.5 157.5L325.5 157.5M556.5 157.5L577.5 136.5L598.5 136.5L619.5 136.5L640.5 136.5M409.5 157.5L430.5 178.5L451.5 178.5M241.5 178.5L262.5 157.5L283.5 157.5M493.5 157.5L514.5 178.5M220.5 178.5L241.5 157.5M-10.5 220.5L10.5 199.5L31.5 178.5L52.5 178.5L73.5 178.5L94.5 178.5L115.5 178.5L136.5 178.5L157.5 178.5L178.5 178.5L199.5 178.5L220.5 178.5L241.5 178.5L262.5 178.5L283.5 178.5L304.5 178.5L325.5 178.5L346.5 178.5L367.5 178.5L388.5 157.5L409.5 157.5L430.5 157.5L451.5 157.5L472.5 157.5L493.5 157.5L514.5 157.5L535.5 157.5L556.5 157.5L577.5 157.5L598.5 157.5" stroke="rgba(255, 255, 255, 1)" stroke-width="3.5"></path><path d="M593.25 157.5 a5.25 5.25 0 1 0 10.5 0 a5.25 5.25 0 1 0 -10.5 0zM530.25 136.5 a5.25 5.25 0 1 0 10.5 0 a5.25 5.25 0 1 0 -10.5 0zM320.25 157.5 a5.25 5.25 0 1 0 10.5 0 a5.25 5.25 0 1 0 -10.5 0zM635.25 136.5 a5.25 5.25 0 1 0 10.5 0 a5.25 5.25 0 1 0 -10.5 0zM446.25 178.5 a5.25 5.25 0 1 0 10.5 0 a5.25 5.25 0 1 0 -10.5 0zM278.25 157.5 a5.25 5.25 0 1 0 10.5 0 a5.25 5.25 0 1 0 -10.5 0zM509.25 178.5 a5.25 5.25 0 1 0 10.5 0 a5.25 5.25 0 1 0 -10.5 0zM236.25 157.5 a5.25 5.25 0 1 0 10.5 0 a5.25 5.25 0 1 0 -10.5 0z" fill="rgba(255, 255, 255, 1)"></path><path d="M115.5 556.5L136.5 577.5L157.5 577.5M94.5 535.5L115.5 535.5M52.5 535.5L73.5 556.5L94.5 556.5M-10.5 514.5L10.5 514.5L31.5 514.5L52.5 535.5L73.5 535.5L94.5 535.5L115.5 556.5L136.5 556.5" stroke="rgba(255, 255, 255, 1)" stroke-width="3.5"></path><path d="M131.25 556.5 a5.25 5.25 0 1 0 10.5 0 a5.25 5.25 0 1 0 -10.5 0zM152.25 577.5 a5.25 5.25 0 1 0 10.5 0 a5.25 5.25 0 1 0 -10.5 0zM110.25 535.5 a5.25 5.25 0 1 0 10.5 0 a5.25 5.25 0 1 0 -10.5 0zM89.25 556.5 a5.25 5.25 0 1 0 10.5 0 a5.25 5.25 0 1 0 -10.5 0z" fill="rgba(255, 255, 255, 1)"></path><path d="M31.5 157.5L52.5 136.5L73.5 136.5L94.5 136.5L115.5 136.5M157.5 157.5L178.5 157.5M262.5 136.5L283.5 115.5M325.5 136.5L346.5 115.5L367.5 115.5L388.5 115.5M136.5 157.5L157.5 136.5L178.5 115.5M-10.5 199.5L10.5 178.5L31.5 157.5L52.5 157.5L73.5 157.5L94.5 157.5L115.5 157.5L136.5 157.5L157.5 157.5L178.5 136.5L199.5 136.5L220.5 136.5L241.5 136.5L262.5 136.5L283.5 136.5L304.5 136.5L325.5 136.5L346.5 136.5L367.5 136.5L388.5 136.5" stroke="rgba(255, 255, 255, 1)" stroke-width="3.5"></path><path d="M383.25 136.5 a5.25 5.25 0 1 0 10.5 0 a5.25 5.25 0 1 0 -10.5 0zM110.25 136.5 a5.25 5.25 0 1 0 10.5 0 a5.25 5.25 0 1 0 -10.5 0zM173.25 157.5 a5.25 5.25 0 1 0 10.5 0 a5.25 5.25 0 1 0 -10.5 0zM278.25 115.5 a5.25 5.25 0 1 0 10.5 0 a5.25 5.25 0 1 0 -10.5 0zM383.25 115.5 a5.25 5.25 0 1 0 10.5 0 a5.25 5.25 0 1 0 -10.5 0zM173.25 115.5 a5.25 5.25 0 1 0 10.5 0 a5.25 5.25 0 1 0 -10.5 0z" fill="rgba(255, 255, 255, 1)"></path></g></g><defs><mask id="SvgjsMask2460"><rect width="1080" height="720" fill="#ffffff"></rect></mask><radialGradient cx="0%" cy="50%" r="1138.42" gradientUnits="userSpaceOnUse" id="SvgjsRadialGradient2461"><stop stop-color="rgba(25, 30, 41, 1)" offset="0"></stop><stop stop-color="rgba(19, 46, 70, 1)" offset="1"></stop></radialGradient><mask id="SvgjsMask2462"><rect width="1080" height="720" fill="white"></rect><path d="M322.87 304.5 a2.63 2.63 0 1 0 5.26 0 a2.63 2.63 0 1 0 -5.26 0zM217.87 367.5 a2.63 2.63 0 1 0 5.26 0 a2.63 2.63 0 1 0 -5.26 0zM343.87 367.5 a2.63 2.63 0 1 0 5.26 0 a2.63 2.63 0 1 0 -5.26 0zM301.87 346.5 a2.63 2.63 0 1 0 5.26 0 a2.63 2.63 0 1 0 -5.26 0zM196.87 367.5 a2.63 2.63 0 1 0 5.26 0 a2.63 2.63 0 1 0 -5.26 0z" fill="black"></path><path d="M553.87 262.5 a2.63 2.63 0 1 0 5.26 0 a2.63 2.63 0 1 0 -5.26 0zM532.87 262.5 a2.63 2.63 0 1 0 5.26 0 a2.63 2.63 0 1 0 -5.26 0zM532.87 304.5 a2.63 2.63 0 1 0 5.26 0 a2.63 2.63 0 1 0 -5.26 0zM469.87 325.5 a2.63 2.63 0 1 0 5.26 0 a2.63 2.63 0 1 0 -5.26 0zM511.87 262.5 a2.63 2.63 0 1 0 5.26 0 a2.63 2.63 0 1 0 -5.26 0zM175.87 346.5 a2.63 2.63 0 1 0 5.26 0 a2.63 2.63 0 1 0 -5.26 0zM469.87 262.5 a2.63 2.63 0 1 0 5.26 0 a2.63 2.63 0 1 0 -5.26 0zM448.87 346.5 a2.63 2.63 0 1 0 5.26 0 a2.63 2.63 0 1 0 -5.26 0z" fill="black"></path><path d="M637.87 451.5 a2.63 2.63 0 1 0 5.26 0 a2.63 2.63 0 1 0 -5.26 0zM427.87 388.5 a2.63 2.63 0 1 0 5.26 0 a2.63 2.63 0 1 0 -5.26 0zM238.87 409.5 a2.63 2.63 0 1 0 5.26 0 a2.63 2.63 0 1 0 -5.26 0zM658.87 430.5 a2.63 2.63 0 1 0 5.26 0 a2.63 2.63 0 1 0 -5.26 0zM616.87 388.5 a2.63 2.63 0 1 0 5.26 0 a2.63 2.63 0 1 0 -5.26 0zM595.87 367.5 a2.63 2.63 0 1 0 5.26 0 a2.63 2.63 0 1 0 -5.26 0zM427.87 409.5 a2.63 2.63 0 1 0 5.26 0 a2.63 2.63 0 1 0 -5.26 0zM553.87 388.5 a2.63 2.63 0 1 0 5.26 0 a2.63 2.63 0 1 0 -5.26 0zM280.87 388.5 a2.63 2.63 0 1 0 5.26 0 a2.63 2.63 0 1 0 -5.26 0z" fill="black"></path><path d="M133.87 325.5 a2.63 2.63 0 1 0 5.26 0 a2.63 2.63 0 1 0 -5.26 0z" fill="black"></path><path d="M784.87 493.5 a2.63 2.63 0 1 0 5.26 0 a2.63 2.63 0 1 0 -5.26 0zM826.87 451.5 a2.63 2.63 0 1 0 5.26 0 a2.63 2.63 0 1 0 -5.26 0zM406.87 430.5 a2.63 2.63 0 1 0 5.26 0 a2.63 2.63 0 1 0 -5.26 0zM112.87 430.5 a2.63 2.63 0 1 0 5.26 0 a2.63 2.63 0 1 0 -5.26 0zM826.87 514.5 a2.63 2.63 0 1 0 5.26 0 a2.63 2.63 0 1 0 -5.26 0zM742.87 472.5 a2.63 2.63 0 1 0 5.26 0 a2.63 2.63 0 1 0 -5.26 0zM700.87 451.5 a2.63 2.63 0 1 0 5.26 0 a2.63 2.63 0 1 0 -5.26 0zM763.87 514.5 a2.63 2.63 0 1 0 5.26 0 a2.63 2.63 0 1 0 -5.26 0zM742.87 535.5 a2.63 2.63 0 1 0 5.26 0 a2.63 2.63 0 1 0 -5.26 0z" fill="black"></path><path d="M301.87 283.5 a2.63 2.63 0 1 0 5.26 0 a2.63 2.63 0 1 0 -5.26 0zM238.87 283.5 a2.63 2.63 0 1 0 5.26 0 a2.63 2.63 0 1 0 -5.26 0zM301.87 262.5 a2.63 2.63 0 1 0 5.26 0 a2.63 2.63 0 1 0 -5.26 0zM280.87 304.5 a2.63 2.63 0 1 0 5.26 0 a2.63 2.63 0 1 0 -5.26 0z" fill="black"></path><path d="M133.87 451.5 a2.63 2.63 0 1 0 5.26 0 a2.63 2.63 0 1 0 -5.26 0zM49.87 430.5 a2.63 2.63 0 1 0 5.26 0 a2.63 2.63 0 1 0 -5.26 0z" fill="black"></path><path d="M259.87 283.5 a2.63 2.63 0 1 0 5.26 0 a2.63 2.63 0 1 0 -5.26 0zM91.87 262.5 a2.63 2.63 0 1 0 5.26 0 a2.63 2.63 0 1 0 -5.26 0zM217.87 283.5 a2.63 2.63 0 1 0 5.26 0 a2.63 2.63 0 1 0 -5.26 0zM301.87 241.5 a2.63 2.63 0 1 0 5.26 0 a2.63 2.63 0 1 0 -5.26 0z" fill="black"></path><path d="M658.87 493.5 a2.63 2.63 0 1 0 5.26 0 a2.63 2.63 0 1 0 -5.26 0zM364.87 472.5 a2.63 2.63 0 1 0 5.26 0 a2.63 2.63 0 1 0 -5.26 0zM490.87 493.5 a2.63 2.63 0 1 0 5.26 0 a2.63 2.63 0 1 0 -5.26 0zM364.87 493.5 a2.63 2.63 0 1 0 5.26 0 a2.63 2.63 0 1 0 -5.26 0zM154.87 472.5 a2.63 2.63 0 1 0 5.26 0 a2.63 2.63 0 1 0 -5.26 0zM595.87 514.5 a2.63 2.63 0 1 0 5.26 0 a2.63 2.63 0 1 0 -5.26 0zM679.87 535.5 a2.63 2.63 0 1 0 5.26 0 a2.63 2.63 0 1 0 -5.26 0zM301.87 493.5 a2.63 2.63 0 1 0 5.26 0 a2.63 2.63 0 1 0 -5.26 0zM700.87 514.5 a2.63 2.63 0 1 0 5.26 0 a2.63 2.63 0 1 0 -5.26 0z" fill="black"></path><path d="M322.87 220.5 a2.63 2.63 0 1 0 5.26 0 a2.63 2.63 0 1 0 -5.26 0zM259.87 241.5 a2.63 2.63 0 1 0 5.26 0 a2.63 2.63 0 1 0 -5.26 0zM196.87 262.5 a2.63 2.63 0 1 0 5.26 0 a2.63 2.63 0 1 0 -5.26 0zM154.87 262.5 a2.63 2.63 0 1 0 5.26 0 a2.63 2.63 0 1 0 -5.26 0zM133.87 262.5 a2.63 2.63 0 1 0 5.26 0 a2.63 2.63 0 1 0 -5.26 0z" fill="black"></path><path d="M259.87 493.5 a2.63 2.63 0 1 0 5.26 0 a2.63 2.63 0 1 0 -5.26 0zM196.87 493.5 a2.63 2.63 0 1 0 5.26 0 a2.63 2.63 0 1 0 -5.26 0zM259.87 472.5 a2.63 2.63 0 1 0 5.26 0 a2.63 2.63 0 1 0 -5.26 0z" fill="black"></path><path d="M700.87 241.5 a2.63 2.63 0 1 0 5.26 0 a2.63 2.63 0 1 0 -5.26 0zM511.87 241.5 a2.63 2.63 0 1 0 5.26 0 a2.63 2.63 0 1 0 -5.26 0zM721.87 304.5 a2.63 2.63 0 1 0 5.26 0 a2.63 2.63 0 1 0 -5.26 0zM595.87 220.5 a2.63 2.63 0 1 0 5.26 0 a2.63 2.63 0 1 0 -5.26 0zM805.87 199.5 a2.63 2.63 0 1 0 5.26 0 a2.63 2.63 0 1 0 -5.26 0zM469.87 199.5 a2.63 2.63 0 1 0 5.26 0 a2.63 2.63 0 1 0 -5.26 0zM553.87 178.5 a2.63 2.63 0 1 0 5.26 0 a2.63 2.63 0 1 0 -5.26 0zM448.87 262.5 a2.63 2.63 0 1 0 5.26 0 a2.63 2.63 0 1 0 -5.26 0zM763.87 178.5 a2.63 2.63 0 1 0 5.26 0 a2.63 2.63 0 1 0 -5.26 0z" fill="black"></path><path d="M448.87 535.5 a2.63 2.63 0 1 0 5.26 0 a2.63 2.63 0 1 0 -5.26 0zM448.87 556.5 a2.63 2.63 0 1 0 5.26 0 a2.63 2.63 0 1 0 -5.26 0zM259.87 535.5 a2.63 2.63 0 1 0 5.26 0 a2.63 2.63 0 1 0 -5.26 0zM427.87 514.5 a2.63 2.63 0 1 0 5.26 0 a2.63 2.63 0 1 0 -5.26 0zM364.87 556.5 a2.63 2.63 0 1 0 5.26 0 a2.63 2.63 0 1 0 -5.26 0zM364.87 577.5 a2.63 2.63 0 1 0 5.26 0 a2.63 2.63 0 1 0 -5.26 0z" fill="black"></path><path d="M595.87 157.5 a2.63 2.63 0 1 0 5.26 0 a2.63 2.63 0 1 0 -5.26 0zM532.87 136.5 a2.63 2.63 0 1 0 5.26 0 a2.63 2.63 0 1 0 -5.26 0zM322.87 157.5 a2.63 2.63 0 1 0 5.26 0 a2.63 2.63 0 1 0 -5.26 0zM637.87 136.5 a2.63 2.63 0 1 0 5.26 0 a2.63 2.63 0 1 0 -5.26 0zM448.87 178.5 a2.63 2.63 0 1 0 5.26 0 a2.63 2.63 0 1 0 -5.26 0zM280.87 157.5 a2.63 2.63 0 1 0 5.26 0 a2.63 2.63 0 1 0 -5.26 0zM511.87 178.5 a2.63 2.63 0 1 0 5.26 0 a2.63 2.63 0 1 0 -5.26 0zM238.87 157.5 a2.63 2.63 0 1 0 5.26 0 a2.63 2.63 0 1 0 -5.26 0z" fill="black"></path><path d="M133.87 556.5 a2.63 2.63 0 1 0 5.26 0 a2.63 2.63 0 1 0 -5.26 0zM154.87 577.5 a2.63 2.63 0 1 0 5.26 0 a2.63 2.63 0 1 0 -5.26 0zM112.87 535.5 a2.63 2.63 0 1 0 5.26 0 a2.63 2.63 0 1 0 -5.26 0zM91.87 556.5 a2.63 2.63 0 1 0 5.26 0 a2.63 2.63 0 1 0 -5.26 0z" fill="black"></path><path d="M385.87 136.5 a2.63 2.63 0 1 0 5.26 0 a2.63 2.63 0 1 0 -5.26 0zM112.87 136.5 a2.63 2.63 0 1 0 5.26 0 a2.63 2.63 0 1 0 -5.26 0zM175.87 157.5 a2.63 2.63 0 1 0 5.26 0 a2.63 2.63 0 1 0 -5.26 0zM280.87 115.5 a2.63 2.63 0 1 0 5.26 0 a2.63 2.63 0 1 0 -5.26 0zM385.87 115.5 a2.63 2.63 0 1 0 5.26 0 a2.63 2.63 0 1 0 -5.26 0zM175.87 115.5 a2.63 2.63 0 1 0 5.26 0 a2.63 2.63 0 1 0 -5.26 0z" fill="black"></path></mask></defs></svg>