<svg xmlns="http://www.w3.org/2000/svg" version="1.1" xmlns:xlink="http://www.w3.org/1999/xlink" xmlns:svgjs="http://svgjs.com/svgjs" width="1440" height="560" preserveAspectRatio="none" viewBox="0 0 1440 560"><g mask="url(&quot;#SvgjsMask1006&quot;)" fill="none"><rect width="1440" height="560" x="0" y="0" fill="rgba(25, 30, 41, 1)"></rect><path d="M-52.33 346.61L-52.33 346.61" stroke="rgba(105, 110, 121, 1)" stroke-width="1.5"></path><path d="M-52.33 346.61L-73.68 497.02" stroke="rgba(105, 110, 121, 1)" stroke-width="1.5"></path><path d="M-52.33 346.61L106.6 378.48" stroke="rgba(105, 110, 121, 1)" stroke-width="1.5"></path><path d="M-52.33 346.61L231.53 358.22" stroke="rgba(105, 110, 121, 1)" stroke-width="1.5"></path><path d="M-52.33 346.61L197.15 487.53" stroke="rgba(105, 110, 121, 1)" stroke-width="1.5"></path><path d="M-52.33 346.61L58.54 662.09" stroke="rgba(105, 110, 121, 1)" stroke-width="1.5"></path><path d="M-52.33 346.61L-46.02 696.32" stroke="rgba(105, 110, 121, 1)" stroke-width="1.5"></path><path d="M-73.68 497.02L-73.68 497.02" stroke="rgba(105, 110, 121, 1)" stroke-width="1.5"></path><path d="M-73.68 497.02L-46.02 696.32" stroke="rgba(105, 110, 121, 1)" stroke-width="1.5"></path><path d="M-73.68 497.02L58.54 662.09" stroke="rgba(105, 110, 121, 1)" stroke-width="1.5"></path><path d="M-73.68 497.02L106.6 378.48" stroke="rgba(105, 110, 121, 1)" stroke-width="1.5"></path><path d="M-73.68 497.02L197.15 487.53" stroke="rgba(105, 110, 121, 1)" stroke-width="1.5"></path><path d="M-73.68 497.02L231.53 358.22" stroke="rgba(105, 110, 121, 1)" stroke-width="1.5"></path><path d="M-46.02 696.32L-46.02 696.32" stroke="rgba(105, 110, 121, 1)" stroke-width="1.5"></path><path d="M-46.02 696.32L58.54 662.09" stroke="rgba(105, 110, 121, 1)" stroke-width="1.5"></path><path d="M-46.02 696.32L199.99 711.53" stroke="rgba(105, 110, 121, 1)" stroke-width="1.5"></path><path d="M106.6 378.48L106.6 378.48" stroke="rgba(105, 110, 121, 1)" stroke-width="1.5"></path><path d="M106.6 378.48L231.53 358.22" stroke="rgba(105, 110, 121, 1)" stroke-width="1.5"></path><path d="M106.6 378.48L197.15 487.53" stroke="rgba(105, 110, 121, 1)" stroke-width="1.5"></path><path d="M58.54 662.09L58.54 662.09" stroke="rgba(105, 110, 121, 1)" stroke-width="1.5"></path><path d="M58.54 662.09L199.99 711.53" stroke="rgba(105, 110, 121, 1)" stroke-width="1.5"></path><path d="M231.53 358.22L231.53 358.22" stroke="rgba(105, 110, 121, 1)" stroke-width="1.5"></path><path d="M231.53 358.22L197.15 487.53" stroke="rgba(105, 110, 121, 1)" stroke-width="1.5"></path><path d="M197.15 487.53L197.15 487.53" stroke="rgba(105, 110, 121, 1)" stroke-width="1.5"></path><path d="M197.15 487.53L354.15 524.88" stroke="rgba(105, 110, 121, 1)" stroke-width="1.5"></path><path d="M197.15 487.53L375.83 376.43" stroke="rgba(105, 110, 121, 1)" stroke-width="1.5"></path><path d="M199.99 711.53L199.99 711.53" stroke="rgba(105, 110, 121, 1)" stroke-width="1.5"></path><path d="M199.99 711.53L378.65 644.05" stroke="rgba(105, 110, 121, 1)" stroke-width="1.5"></path><path d="M199.99 711.53L197.15 487.53" stroke="rgba(105, 110, 121, 1)" stroke-width="1.5"></path><path d="M199.99 711.53L354.15 524.88" stroke="rgba(105, 110, 121, 1)" stroke-width="1.5"></path><path d="M375.83 376.43L375.83 376.43" stroke="rgba(105, 110, 121, 1)" stroke-width="1.5"></path><path d="M375.83 376.43L231.53 358.22" stroke="rgba(105, 110, 121, 1)" stroke-width="1.5"></path><path d="M375.83 376.43L523.55 368.69" stroke="rgba(105, 110, 121, 1)" stroke-width="1.5"></path><path d="M375.83 376.43L354.15 524.88" stroke="rgba(105, 110, 121, 1)" stroke-width="1.5"></path><path d="M354.15 524.88L354.15 524.88" stroke="rgba(105, 110, 121, 1)" stroke-width="1.5"></path><path d="M354.15 524.88L378.65 644.05" stroke="rgba(105, 110, 121, 1)" stroke-width="1.5"></path><path d="M378.65 644.05L378.65 644.05" stroke="rgba(105, 110, 121, 1)" stroke-width="1.5"></path><path d="M378.65 644.05L549.75 644.97" stroke="rgba(105, 110, 121, 1)" stroke-width="1.5"></path><path d="M378.65 644.05L549.94 494.75" stroke="rgba(105, 110, 121, 1)" stroke-width="1.5"></path><path d="M378.65 644.05L197.15 487.53" stroke="rgba(105, 110, 121, 1)" stroke-width="1.5"></path><path d="M523.55 368.69L523.55 368.69" stroke="rgba(105, 110, 121, 1)" stroke-width="1.5"></path><path d="M523.55 368.69L549.94 494.75" stroke="rgba(105, 110, 121, 1)" stroke-width="1.5"></path><path d="M549.94 494.75L549.94 494.75" stroke="rgba(105, 110, 121, 1)" stroke-width="1.5"></path><path d="M549.94 494.75L549.75 644.97" stroke="rgba(105, 110, 121, 1)" stroke-width="1.5"></path><path d="M549.75 644.97L549.75 644.97" stroke="rgba(105, 110, 121, 1)" stroke-width="1.5"></path><path d="M549.75 644.97L675.79 705.4" stroke="rgba(105, 110, 121, 1)" stroke-width="1.5"></path><path d="M684.34 394.12L684.34 394.12" stroke="rgba(105, 110, 121, 1)" stroke-width="1.5"></path><path d="M684.34 394.12L810.26 401.21" stroke="rgba(105, 110, 121, 1)" stroke-width="1.5"></path><path d="M684.34 394.12L523.55 368.69" stroke="rgba(105, 110, 121, 1)" stroke-width="1.5"></path><path d="M684.34 394.12L549.94 494.75" stroke="rgba(105, 110, 121, 1)" stroke-width="1.5"></path><path d="M684.34 394.12L860.29 506.11" stroke="rgba(105, 110, 121, 1)" stroke-width="1.5"></path><path d="M684.34 394.12L843.07 251.9" stroke="rgba(105, 110, 121, 1)" stroke-width="1.5"></path><path d="M675.79 705.4L675.79 705.4" stroke="rgba(105, 110, 121, 1)" stroke-width="1.5"></path><path d="M675.79 705.4L829.45 639.34" stroke="rgba(105, 110, 121, 1)" stroke-width="1.5"></path><path d="M843.07 251.9L843.07 251.9" stroke="rgba(105, 110, 121, 1)" stroke-width="1.5"></path><path d="M843.07 251.9L810.26 401.21" stroke="rgba(105, 110, 121, 1)" stroke-width="1.5"></path><path d="M843.07 251.9L1001.52 221.87" stroke="rgba(105, 110, 121, 1)" stroke-width="1.5"></path><path d="M843.07 251.9L960.11 382.86" stroke="rgba(105, 110, 121, 1)" stroke-width="1.5"></path><path d="M843.07 251.9L984.46 63.62" stroke="rgba(105, 110, 121, 1)" stroke-width="1.5"></path><path d="M843.07 251.9L860.29 506.11" stroke="rgba(105, 110, 121, 1)" stroke-width="1.5"></path><path d="M810.26 401.21L810.26 401.21" stroke="rgba(105, 110, 121, 1)" stroke-width="1.5"></path><path d="M810.26 401.21L860.29 506.11" stroke="rgba(105, 110, 121, 1)" stroke-width="1.5"></path><path d="M810.26 401.21L960.11 382.86" stroke="rgba(105, 110, 121, 1)" stroke-width="1.5"></path><path d="M810.26 401.21L1011.72 489.13" stroke="rgba(105, 110, 121, 1)" stroke-width="1.5"></path><path d="M810.26 401.21L829.45 639.34" stroke="rgba(105, 110, 121, 1)" stroke-width="1.5"></path><path d="M860.29 506.11L860.29 506.11" stroke="rgba(105, 110, 121, 1)" stroke-width="1.5"></path><path d="M860.29 506.11L829.45 639.34" stroke="rgba(105, 110, 121, 1)" stroke-width="1.5"></path><path d="M860.29 506.11L1011.72 489.13" stroke="rgba(105, 110, 121, 1)" stroke-width="1.5"></path><path d="M860.29 506.11L939.3 638.56" stroke="rgba(105, 110, 121, 1)" stroke-width="1.5"></path><path d="M829.45 639.34L829.45 639.34" stroke="rgba(105, 110, 121, 1)" stroke-width="1.5"></path><path d="M829.45 639.34L939.3 638.56" stroke="rgba(105, 110, 121, 1)" stroke-width="1.5"></path><path d="M990.94 -86.48L990.94 -86.48" stroke="rgba(105, 110, 121, 1)" stroke-width="1.5"></path><path d="M990.94 -86.48L1131.61 -58.57" stroke="rgba(105, 110, 121, 1)" stroke-width="1.5"></path><path d="M990.94 -86.48L984.46 63.62" stroke="rgba(105, 110, 121, 1)" stroke-width="1.5"></path><path d="M990.94 -86.48L1113.4 90.05" stroke="rgba(105, 110, 121, 1)" stroke-width="1.5"></path><path d="M990.94 -86.48L1275.79 -93.66" stroke="rgba(105, 110, 121, 1)" stroke-width="1.5"></path><path d="M990.94 -86.48L1001.52 221.87" stroke="rgba(105, 110, 121, 1)" stroke-width="1.5"></path><path d="M984.46 63.62L984.46 63.62" stroke="rgba(105, 110, 121, 1)" stroke-width="1.5"></path><path d="M984.46 63.62L1113.4 90.05" stroke="rgba(105, 110, 121, 1)" stroke-width="1.5"></path><path d="M1001.52 221.87L1001.52 221.87" stroke="rgba(105, 110, 121, 1)" stroke-width="1.5"></path><path d="M1001.52 221.87L1146.22 227.93" stroke="rgba(105, 110, 121, 1)" stroke-width="1.5"></path><path d="M1001.52 221.87L984.46 63.62" stroke="rgba(105, 110, 121, 1)" stroke-width="1.5"></path><path d="M1001.52 221.87L960.11 382.86" stroke="rgba(105, 110, 121, 1)" stroke-width="1.5"></path><path d="M1001.52 221.87L1113.4 90.05" stroke="rgba(105, 110, 121, 1)" stroke-width="1.5"></path><path d="M960.11 382.86L960.11 382.86" stroke="rgba(105, 110, 121, 1)" stroke-width="1.5"></path><path d="M960.11 382.86L1011.72 489.13" stroke="rgba(105, 110, 121, 1)" stroke-width="1.5"></path><path d="M960.11 382.86L860.29 506.11" stroke="rgba(105, 110, 121, 1)" stroke-width="1.5"></path><path d="M960.11 382.86L1139.44 383" stroke="rgba(105, 110, 121, 1)" stroke-width="1.5"></path><path d="M1011.72 489.13L1011.72 489.13" stroke="rgba(105, 110, 121, 1)" stroke-width="1.5"></path><path d="M1011.72 489.13L1114.09 527.38" stroke="rgba(105, 110, 121, 1)" stroke-width="1.5"></path><path d="M939.3 638.56L939.3 638.56" stroke="rgba(105, 110, 121, 1)" stroke-width="1.5"></path><path d="M939.3 638.56L1100.15 670.04" stroke="rgba(105, 110, 121, 1)" stroke-width="1.5"></path><path d="M939.3 638.56L1011.72 489.13" stroke="rgba(105, 110, 121, 1)" stroke-width="1.5"></path><path d="M939.3 638.56L1114.09 527.38" stroke="rgba(105, 110, 121, 1)" stroke-width="1.5"></path><path d="M1131.61 -58.57L1131.61 -58.57" stroke="rgba(105, 110, 121, 1)" stroke-width="1.5"></path><path d="M1131.61 -58.57L1275.79 -93.66" stroke="rgba(105, 110, 121, 1)" stroke-width="1.5"></path><path d="M1131.61 -58.57L1113.4 90.05" stroke="rgba(105, 110, 121, 1)" stroke-width="1.5"></path><path d="M1131.61 -58.57L984.46 63.62" stroke="rgba(105, 110, 121, 1)" stroke-width="1.5"></path><path d="M1131.61 -58.57L1312.06 42.26" stroke="rgba(105, 110, 121, 1)" stroke-width="1.5"></path><path d="M1131.61 -58.57L1146.22 227.93" stroke="rgba(105, 110, 121, 1)" stroke-width="1.5"></path><path d="M1113.4 90.05L1113.4 90.05" stroke="rgba(105, 110, 121, 1)" stroke-width="1.5"></path><path d="M1113.4 90.05L1146.22 227.93" stroke="rgba(105, 110, 121, 1)" stroke-width="1.5"></path><path d="M1113.4 90.05L1312.06 42.26" stroke="rgba(105, 110, 121, 1)" stroke-width="1.5"></path><path d="M1146.22 227.93L1146.22 227.93" stroke="rgba(105, 110, 121, 1)" stroke-width="1.5"></path><path d="M1146.22 227.93L1291.15 252.64" stroke="rgba(105, 110, 121, 1)" stroke-width="1.5"></path><path d="M1146.22 227.93L1139.44 383" stroke="rgba(105, 110, 121, 1)" stroke-width="1.5"></path><path d="M1139.44 383L1139.44 383" stroke="rgba(105, 110, 121, 1)" stroke-width="1.5"></path><path d="M1139.44 383L1114.09 527.38" stroke="rgba(105, 110, 121, 1)" stroke-width="1.5"></path><path d="M1139.44 383L1011.72 489.13" stroke="rgba(105, 110, 121, 1)" stroke-width="1.5"></path><path d="M1139.44 383L1291.15 252.64" stroke="rgba(105, 110, 121, 1)" stroke-width="1.5"></path><path d="M1114.09 527.38L1114.09 527.38" stroke="rgba(105, 110, 121, 1)" stroke-width="1.5"></path><path d="M1114.09 527.38L1100.15 670.04" stroke="rgba(105, 110, 121, 1)" stroke-width="1.5"></path><path d="M1100.15 670.04L1100.15 670.04" stroke="rgba(105, 110, 121, 1)" stroke-width="1.5"></path><path d="M1100.15 670.04L1245.31 697.8" stroke="rgba(105, 110, 121, 1)" stroke-width="1.5"></path><path d="M1275.79 -93.66L1275.79 -93.66" stroke="rgba(105, 110, 121, 1)" stroke-width="1.5"></path><path d="M1275.79 -93.66L1312.06 42.26" stroke="rgba(105, 110, 121, 1)" stroke-width="1.5"></path><path d="M1275.79 -93.66L1419.81 -101.41" stroke="rgba(105, 110, 121, 1)" stroke-width="1.5"></path><path d="M1275.79 -93.66L1421.82 102.33" stroke="rgba(105, 110, 121, 1)" stroke-width="1.5"></path><path d="M1275.79 -93.66L1113.4 90.05" stroke="rgba(105, 110, 121, 1)" stroke-width="1.5"></path><path d="M1312.06 42.26L1312.06 42.26" stroke="rgba(105, 110, 121, 1)" stroke-width="1.5"></path><path d="M1312.06 42.26L1421.82 102.33" stroke="rgba(105, 110, 121, 1)" stroke-width="1.5"></path><path d="M1312.06 42.26L1419.81 -101.41" stroke="rgba(105, 110, 121, 1)" stroke-width="1.5"></path><path d="M1291.15 252.64L1291.15 252.64" stroke="rgba(105, 110, 121, 1)" stroke-width="1.5"></path><path d="M1291.15 252.64L1453.22 229.63" stroke="rgba(105, 110, 121, 1)" stroke-width="1.5"></path><path d="M1275.75 530.05L1275.75 530.05" stroke="rgba(105, 110, 121, 1)" stroke-width="1.5"></path><path d="M1275.75 530.05L1114.09 527.38" stroke="rgba(105, 110, 121, 1)" stroke-width="1.5"></path><path d="M1275.75 530.05L1245.31 697.8" stroke="rgba(105, 110, 121, 1)" stroke-width="1.5"></path><path d="M1245.31 697.8L1245.31 697.8" stroke="rgba(105, 110, 121, 1)" stroke-width="1.5"></path><path d="M1245.31 697.8L1437.7 704.16" stroke="rgba(105, 110, 121, 1)" stroke-width="1.5"></path><path d="M1419.81 -101.41L1419.81 -101.41" stroke="rgba(105, 110, 121, 1)" stroke-width="1.5"></path><path d="M1419.81 -101.41L1568.72 -50.6" stroke="rgba(105, 110, 121, 1)" stroke-width="1.5"></path><path d="M1421.82 102.33L1421.82 102.33" stroke="rgba(105, 110, 121, 1)" stroke-width="1.5"></path><path d="M1421.82 102.33L1453.22 229.63" stroke="rgba(105, 110, 121, 1)" stroke-width="1.5"></path><path d="M1421.82 102.33L1587.67 96.74" stroke="rgba(105, 110, 121, 1)" stroke-width="1.5"></path><path d="M1453.22 229.63L1453.22 229.63" stroke="rgba(105, 110, 121, 1)" stroke-width="1.5"></path><path d="M1453.22 229.63L1439.69 346.03" stroke="rgba(105, 110, 121, 1)" stroke-width="1.5"></path><path d="M1453.22 229.63L1577.96 192.64" stroke="rgba(105, 110, 121, 1)" stroke-width="1.5"></path><path d="M1453.22 229.63L1587.67 96.74" stroke="rgba(105, 110, 121, 1)" stroke-width="1.5"></path><path d="M1439.69 346.03L1439.69 346.03" stroke="rgba(105, 110, 121, 1)" stroke-width="1.5"></path><path d="M1439.69 346.03L1580.34 408.62" stroke="rgba(105, 110, 121, 1)" stroke-width="1.5"></path><path d="M1439.69 346.03L1291.15 252.64" stroke="rgba(105, 110, 121, 1)" stroke-width="1.5"></path><path d="M1439.69 346.03L1577.96 192.64" stroke="rgba(105, 110, 121, 1)" stroke-width="1.5"></path><path d="M1437.7 704.16L1437.7 704.16" stroke="rgba(105, 110, 121, 1)" stroke-width="1.5"></path><path d="M1568.72 -50.6L1568.72 -50.6" stroke="rgba(105, 110, 121, 1)" stroke-width="1.5"></path><path d="M1568.72 -50.6L1587.67 96.74" stroke="rgba(105, 110, 121, 1)" stroke-width="1.5"></path><path d="M1568.72 -50.6L1421.82 102.33" stroke="rgba(105, 110, 121, 1)" stroke-width="1.5"></path><path d="M1568.72 -50.6L1577.96 192.64" stroke="rgba(105, 110, 121, 1)" stroke-width="1.5"></path><path d="M1568.72 -50.6L1312.06 42.26" stroke="rgba(105, 110, 121, 1)" stroke-width="1.5"></path><path d="M1568.72 -50.6L1275.79 -93.66" stroke="rgba(105, 110, 121, 1)" stroke-width="1.5"></path><path d="M1587.67 96.74L1587.67 96.74" stroke="rgba(105, 110, 121, 1)" stroke-width="1.5"></path><path d="M1587.67 96.74L1577.96 192.64" stroke="rgba(105, 110, 121, 1)" stroke-width="1.5"></path><path d="M1577.96 192.64L1577.96 192.64" stroke="rgba(105, 110, 121, 1)" stroke-width="1.5"></path><path d="M1577.96 192.64L1421.82 102.33" stroke="rgba(105, 110, 121, 1)" stroke-width="1.5"></path><path d="M1580.34 408.62L1580.34 408.62" stroke="rgba(105, 110, 121, 1)" stroke-width="1.5"></path><path d="M1580.34 408.62L1585.02 507.73" stroke="rgba(105, 110, 121, 1)" stroke-width="1.5"></path><path d="M1580.34 408.62L1577.96 192.64" stroke="rgba(105, 110, 121, 1)" stroke-width="1.5"></path><path d="M1585.02 507.73L1585.02 507.73" stroke="rgba(105, 110, 121, 1)" stroke-width="1.5"></path><path d="M1585.02 507.73L1439.69 346.03" stroke="rgba(105, 110, 121, 1)" stroke-width="1.5"></path><path d="M1585.02 507.73L1437.7 704.16" stroke="rgba(105, 110, 121, 1)" stroke-width="1.5"></path><path d="M1585.02 507.73L1453.22 229.63" stroke="rgba(105, 110, 121, 1)" stroke-width="1.5"></path><path d="M1585.02 507.73L1275.75 530.05" stroke="rgba(105, 110, 121, 1)" stroke-width="1.5"></path><circle r="5" cx="-52.33" cy="346.61" fill="rgba(105, 110, 121, 1)"></circle><circle r="5" cx="-73.68" cy="497.02" fill="rgba(105, 110, 121, 1)"></circle><circle r="5" cx="-46.02" cy="696.32" fill="rgba(105, 110, 121, 1)"></circle><circle r="5" cx="106.6" cy="378.48" fill="rgba(105, 110, 121, 1)"></circle><circle r="5" cx="58.54" cy="662.09" fill="rgba(105, 110, 121, 1)"></circle><circle r="5" cx="231.53" cy="358.22" fill="rgba(105, 110, 121, 1)"></circle><circle r="5" cx="197.15" cy="487.53" fill="rgba(105, 110, 121, 1)"></circle><circle r="5" cx="199.99" cy="711.53" fill="rgba(105, 110, 121, 1)"></circle><circle r="5" cx="375.83" cy="376.43" fill="rgba(105, 110, 121, 1)"></circle><circle r="5" cx="354.15" cy="524.88" fill="rgba(105, 110, 121, 1)"></circle><circle r="5" cx="378.65" cy="644.05" fill="rgba(105, 110, 121, 1)"></circle><circle r="5" cx="523.55" cy="368.69" fill="rgba(105, 110, 121, 1)"></circle><circle r="5" cx="549.94" cy="494.75" fill="rgba(105, 110, 121, 1)"></circle><circle r="5" cx="549.75" cy="644.97" fill="rgba(105, 110, 121, 1)"></circle><circle r="5" cx="684.34" cy="394.12" fill="rgba(105, 110, 121, 1)"></circle><circle r="5" cx="675.79" cy="705.4" fill="rgba(105, 110, 121, 1)"></circle><circle r="5" cx="843.07" cy="251.9" fill="rgba(105, 110, 121, 1)"></circle><circle r="5" cx="810.26" cy="401.21" fill="rgba(105, 110, 121, 1)"></circle><circle r="5" cx="860.29" cy="506.11" fill="rgba(105, 110, 121, 1)"></circle><circle r="5" cx="829.45" cy="639.34" fill="rgba(105, 110, 121, 1)"></circle><circle r="5" cx="990.94" cy="-86.48" fill="rgba(105, 110, 121, 1)"></circle><circle r="5" cx="984.46" cy="63.62" fill="rgba(105, 110, 121, 1)"></circle><circle r="5" cx="1001.52" cy="221.87" fill="rgba(105, 110, 121, 1)"></circle><circle r="5" cx="960.11" cy="382.86" fill="rgba(105, 110, 121, 1)"></circle><circle r="5" cx="1011.72" cy="489.13" fill="rgba(105, 110, 121, 1)"></circle><circle r="5" cx="939.3" cy="638.56" fill="rgba(105, 110, 121, 1)"></circle><circle r="5" cx="1131.61" cy="-58.57" fill="rgba(105, 110, 121, 1)"></circle><circle r="5" cx="1113.4" cy="90.05" fill="rgba(105, 110, 121, 1)"></circle><circle r="5" cx="1146.22" cy="227.93" fill="rgba(105, 110, 121, 1)"></circle><circle r="5" cx="1139.44" cy="383" fill="rgba(105, 110, 121, 1)"></circle><circle r="5" cx="1114.09" cy="527.38" fill="rgba(105, 110, 121, 1)"></circle><circle r="5" cx="1100.15" cy="670.04" fill="rgba(105, 110, 121, 1)"></circle><circle r="5" cx="1275.79" cy="-93.66" fill="rgba(105, 110, 121, 1)"></circle><circle r="5" cx="1312.06" cy="42.26" fill="rgba(105, 110, 121, 1)"></circle><circle r="5" cx="1291.15" cy="252.64" fill="rgba(105, 110, 121, 1)"></circle><circle r="5" cx="1275.75" cy="530.05" fill="rgba(105, 110, 121, 1)"></circle><circle r="5" cx="1245.31" cy="697.8" fill="rgba(105, 110, 121, 1)"></circle><circle r="5" cx="1419.81" cy="-101.41" fill="rgba(105, 110, 121, 1)"></circle><circle r="5" cx="1421.82" cy="102.33" fill="rgba(105, 110, 121, 1)"></circle><circle r="5" cx="1453.22" cy="229.63" fill="rgba(105, 110, 121, 1)"></circle><circle r="5" cx="1439.69" cy="346.03" fill="rgba(105, 110, 121, 1)"></circle><circle r="5" cx="1437.7" cy="704.16" fill="rgba(105, 110, 121, 1)"></circle><circle r="5" cx="1568.72" cy="-50.6" fill="rgba(105, 110, 121, 1)"></circle><circle r="5" cx="1587.67" cy="96.74" fill="rgba(105, 110, 121, 1)"></circle><circle r="5" cx="1577.96" cy="192.64" fill="rgba(105, 110, 121, 1)"></circle><circle r="5" cx="1580.34" cy="408.62" fill="rgba(105, 110, 121, 1)"></circle><circle r="5" cx="1585.02" cy="507.73" fill="rgba(105, 110, 121, 1)"></circle><path d="M-74.86 678.14L-74.86 678.14" stroke="hsl(209.39999999999998, 57.3%, 22.7%)" stroke-width="1.5"></path><path d="M-74.86 678.14L58.42 649.33" stroke="hsl(209.39999999999998, 57.3%, 22.7%)" stroke-width="1.5"></path><path d="M-74.86 678.14L-103.43 497.41" stroke="hsl(209.39999999999998, 57.3%, 22.7%)" stroke-width="1.5"></path><path d="M-74.86 678.14L80.74 539.25" stroke="hsl(209.39999999999998, 57.3%, 22.7%)" stroke-width="1.5"></path><path d="M355.46 684.65L355.46 684.65" stroke="hsl(209.39999999999998, 57.3%, 22.7%)" stroke-width="1.5"></path><path d="M355.46 684.65L191.05 698.02" stroke="hsl(209.39999999999998, 57.3%, 22.7%)" stroke-width="1.5"></path><path d="M355.46 684.65L343.87 516.71" stroke="hsl(209.39999999999998, 57.3%, 22.7%)" stroke-width="1.5"></path><path d="M355.46 684.65L547.06 491.49" stroke="hsl(209.39999999999998, 57.3%, 22.7%)" stroke-width="1.5"></path><path d="M355.46 684.65L58.42 649.33" stroke="hsl(209.39999999999998, 57.3%, 22.7%)" stroke-width="1.5"></path><path d="M355.46 684.65L80.74 539.25" stroke="hsl(209.39999999999998, 57.3%, 22.7%)" stroke-width="1.5"></path><path d="M825.62 556.72L825.62 556.72" stroke="hsl(209.39999999999998, 57.3%, 22.7%)" stroke-width="1.5"></path><path d="M825.62 556.72L810.36 695.65" stroke="hsl(209.39999999999998, 57.3%, 22.7%)" stroke-width="1.5"></path><path d="M825.62 556.72L835.7 386.76" stroke="hsl(209.39999999999998, 57.3%, 22.7%)" stroke-width="1.5"></path><path d="M998.25 223.62L998.25 223.62" stroke="hsl(209.39999999999998, 57.3%, 22.7%)" stroke-width="1.5"></path><path d="M998.25 223.62L1130.18 195.02" stroke="hsl(209.39999999999998, 57.3%, 22.7%)" stroke-width="1.5"></path><path d="M998.25 223.62L956.03 365.68" stroke="hsl(209.39999999999998, 57.3%, 22.7%)" stroke-width="1.5"></path><path d="M998.25 223.62L1152.81 373" stroke="hsl(209.39999999999998, 57.3%, 22.7%)" stroke-width="1.5"></path><path d="M998.25 223.62L835.7 386.76" stroke="hsl(209.39999999999998, 57.3%, 22.7%)" stroke-width="1.5"></path><path d="M992.83 690.15L992.83 690.15" stroke="hsl(209.39999999999998, 57.3%, 22.7%)" stroke-width="1.5"></path><path d="M992.83 690.15L1137.68 653.15" stroke="hsl(209.39999999999998, 57.3%, 22.7%)" stroke-width="1.5"></path><path d="M992.83 690.15L810.36 695.65" stroke="hsl(209.39999999999998, 57.3%, 22.7%)" stroke-width="1.5"></path><path d="M1301.85 252.76L1301.85 252.76" stroke="hsl(209.39999999999998, 57.3%, 22.7%)" stroke-width="1.5"></path><path d="M1301.85 252.76L1295.7 389.73" stroke="hsl(209.39999999999998, 57.3%, 22.7%)" stroke-width="1.5"></path><path d="M1301.85 252.76L1449.18 249.39" stroke="hsl(209.39999999999998, 57.3%, 22.7%)" stroke-width="1.5"></path><path d="M1301.85 252.76L1433.7 340.7" stroke="hsl(209.39999999999998, 57.3%, 22.7%)" stroke-width="1.5"></path><path d="M1301.85 252.76L1130.18 195.02" stroke="hsl(209.39999999999998, 57.3%, 22.7%)" stroke-width="1.5"></path><path d="M1301.85 252.76L1152.81 373" stroke="hsl(209.39999999999998, 57.3%, 22.7%)" stroke-width="1.5"></path><path d="M1301.85 252.76L1400.14 73.13" stroke="hsl(209.39999999999998, 57.3%, 22.7%)" stroke-width="1.5"></path><path d="M1587.26 -59.26L1587.26 -59.26" stroke="hsl(209.39999999999998, 57.3%, 22.7%)" stroke-width="1.5"></path><path d="M1587.26 -59.26L1582.93 40.94" stroke="hsl(209.39999999999998, 57.3%, 22.7%)" stroke-width="1.5"></path><path d="M1587.26 -59.26L1400.14 73.13" stroke="hsl(209.39999999999998, 57.3%, 22.7%)" stroke-width="1.5"></path><path d="M1587.26 -59.26L1309 -88.13" stroke="hsl(209.39999999999998, 57.3%, 22.7%)" stroke-width="1.5"></path><path d="M1587.26 -59.26L1287.32 43.01" stroke="hsl(209.39999999999998, 57.3%, 22.7%)" stroke-width="1.5"></path><path d="M1582.93 40.94L1582.93 40.94" stroke="hsl(209.39999999999998, 57.3%, 22.7%)" stroke-width="1.5"></path><path d="M1582.93 40.94L1400.14 73.13" stroke="hsl(209.39999999999998, 57.3%, 22.7%)" stroke-width="1.5"></path><path d="M1582.93 40.94L1449.18 249.39" stroke="hsl(209.39999999999998, 57.3%, 22.7%)" stroke-width="1.5"></path><path d="M-103.43 497.41L-103.43 497.41" stroke="hsl(209.39999999999998, 57.3%, 22.7%)" stroke-width="1.5"></path><path d="M-103.43 497.41L80.74 539.25" stroke="hsl(209.39999999999998, 57.3%, 22.7%)" stroke-width="1.5"></path><path d="M-103.43 497.41L58.42 649.33" stroke="hsl(209.39999999999998, 57.3%, 22.7%)" stroke-width="1.5"></path><path d="M80.74 539.25L80.74 539.25" stroke="hsl(209.39999999999998, 57.3%, 22.7%)" stroke-width="1.5"></path><path d="M80.74 539.25L58.42 649.33" stroke="hsl(209.39999999999998, 57.3%, 22.7%)" stroke-width="1.5"></path><path d="M80.74 539.25L191.05 698.02" stroke="hsl(209.39999999999998, 57.3%, 22.7%)" stroke-width="1.5"></path><path d="M80.74 539.25L343.87 516.71" stroke="hsl(209.39999999999998, 57.3%, 22.7%)" stroke-width="1.5"></path><path d="M58.42 649.33L58.42 649.33" stroke="hsl(209.39999999999998, 57.3%, 22.7%)" stroke-width="1.5"></path><path d="M58.42 649.33L191.05 698.02" stroke="hsl(209.39999999999998, 57.3%, 22.7%)" stroke-width="1.5"></path><path d="M191.05 698.02L191.05 698.02" stroke="hsl(209.39999999999998, 57.3%, 22.7%)" stroke-width="1.5"></path><path d="M343.87 516.71L343.87 516.71" stroke="hsl(209.39999999999998, 57.3%, 22.7%)" stroke-width="1.5"></path><path d="M343.87 516.71L547.06 491.49" stroke="hsl(209.39999999999998, 57.3%, 22.7%)" stroke-width="1.5"></path><path d="M343.87 516.71L191.05 698.02" stroke="hsl(209.39999999999998, 57.3%, 22.7%)" stroke-width="1.5"></path><path d="M343.87 516.71L58.42 649.33" stroke="hsl(209.39999999999998, 57.3%, 22.7%)" stroke-width="1.5"></path><path d="M343.87 516.71L639.81 380.86" stroke="hsl(209.39999999999998, 57.3%, 22.7%)" stroke-width="1.5"></path><path d="M547.06 491.49L547.06 491.49" stroke="hsl(209.39999999999998, 57.3%, 22.7%)" stroke-width="1.5"></path><path d="M547.06 491.49L639.81 380.86" stroke="hsl(209.39999999999998, 57.3%, 22.7%)" stroke-width="1.5"></path><path d="M547.06 491.49L696.15 674.16" stroke="hsl(209.39999999999998, 57.3%, 22.7%)" stroke-width="1.5"></path><path d="M639.81 380.86L639.81 380.86" stroke="hsl(209.39999999999998, 57.3%, 22.7%)" stroke-width="1.5"></path><path d="M696.15 674.16L696.15 674.16" stroke="hsl(209.39999999999998, 57.3%, 22.7%)" stroke-width="1.5"></path><path d="M696.15 674.16L810.36 695.65" stroke="hsl(209.39999999999998, 57.3%, 22.7%)" stroke-width="1.5"></path><path d="M696.15 674.16L825.62 556.72" stroke="hsl(209.39999999999998, 57.3%, 22.7%)" stroke-width="1.5"></path><path d="M835.7 386.76L835.7 386.76" stroke="hsl(209.39999999999998, 57.3%, 22.7%)" stroke-width="1.5"></path><path d="M835.7 386.76L956.03 365.68" stroke="hsl(209.39999999999998, 57.3%, 22.7%)" stroke-width="1.5"></path><path d="M835.7 386.76L639.81 380.86" stroke="hsl(209.39999999999998, 57.3%, 22.7%)" stroke-width="1.5"></path><path d="M810.36 695.65L810.36 695.65" stroke="hsl(209.39999999999998, 57.3%, 22.7%)" stroke-width="1.5"></path><path d="M810.36 695.65L835.7 386.76" stroke="hsl(209.39999999999998, 57.3%, 22.7%)" stroke-width="1.5"></path><path d="M956.03 365.68L956.03 365.68" stroke="hsl(209.39999999999998, 57.3%, 22.7%)" stroke-width="1.5"></path><path d="M956.03 365.68L1152.81 373" stroke="hsl(209.39999999999998, 57.3%, 22.7%)" stroke-width="1.5"></path><path d="M956.03 365.68L825.62 556.72" stroke="hsl(209.39999999999998, 57.3%, 22.7%)" stroke-width="1.5"></path><path d="M1130.18 195.02L1130.18 195.02" stroke="hsl(209.39999999999998, 57.3%, 22.7%)" stroke-width="1.5"></path><path d="M1130.18 195.02L1152.81 373" stroke="hsl(209.39999999999998, 57.3%, 22.7%)" stroke-width="1.5"></path><path d="M1152.81 373L1152.81 373" stroke="hsl(209.39999999999998, 57.3%, 22.7%)" stroke-width="1.5"></path><path d="M1152.81 373L1295.7 389.73" stroke="hsl(209.39999999999998, 57.3%, 22.7%)" stroke-width="1.5"></path><path d="M1137.68 653.15L1137.68 653.15" stroke="hsl(209.39999999999998, 57.3%, 22.7%)" stroke-width="1.5"></path><path d="M1137.68 653.15L1406.49 650.69" stroke="hsl(209.39999999999998, 57.3%, 22.7%)" stroke-width="1.5"></path><path d="M1309 -88.13L1309 -88.13" stroke="hsl(209.39999999999998, 57.3%, 22.7%)" stroke-width="1.5"></path><path d="M1309 -88.13L1287.32 43.01" stroke="hsl(209.39999999999998, 57.3%, 22.7%)" stroke-width="1.5"></path><path d="M1309 -88.13L1400.14 73.13" stroke="hsl(209.39999999999998, 57.3%, 22.7%)" stroke-width="1.5"></path><path d="M1287.32 43.01L1287.32 43.01" stroke="hsl(209.39999999999998, 57.3%, 22.7%)" stroke-width="1.5"></path><path d="M1287.32 43.01L1400.14 73.13" stroke="hsl(209.39999999999998, 57.3%, 22.7%)" stroke-width="1.5"></path><path d="M1287.32 43.01L1301.85 252.76" stroke="hsl(209.39999999999998, 57.3%, 22.7%)" stroke-width="1.5"></path><path d="M1287.32 43.01L1130.18 195.02" stroke="hsl(209.39999999999998, 57.3%, 22.7%)" stroke-width="1.5"></path><path d="M1287.32 43.01L1449.18 249.39" stroke="hsl(209.39999999999998, 57.3%, 22.7%)" stroke-width="1.5"></path><path d="M1287.32 43.01L1582.93 40.94" stroke="hsl(209.39999999999998, 57.3%, 22.7%)" stroke-width="1.5"></path><path d="M1295.7 389.73L1295.7 389.73" stroke="hsl(209.39999999999998, 57.3%, 22.7%)" stroke-width="1.5"></path><path d="M1295.7 389.73L1433.7 340.7" stroke="hsl(209.39999999999998, 57.3%, 22.7%)" stroke-width="1.5"></path><path d="M1295.7 389.73L1449.18 249.39" stroke="hsl(209.39999999999998, 57.3%, 22.7%)" stroke-width="1.5"></path><path d="M1295.7 389.73L1441.93 537.92" stroke="hsl(209.39999999999998, 57.3%, 22.7%)" stroke-width="1.5"></path><path d="M1400.14 73.13L1400.14 73.13" stroke="hsl(209.39999999999998, 57.3%, 22.7%)" stroke-width="1.5"></path><path d="M1400.14 73.13L1449.18 249.39" stroke="hsl(209.39999999999998, 57.3%, 22.7%)" stroke-width="1.5"></path><path d="M1449.18 249.39L1449.18 249.39" stroke="hsl(209.39999999999998, 57.3%, 22.7%)" stroke-width="1.5"></path><path d="M1449.18 249.39L1433.7 340.7" stroke="hsl(209.39999999999998, 57.3%, 22.7%)" stroke-width="1.5"></path><path d="M1433.7 340.7L1433.7 340.7" stroke="hsl(209.39999999999998, 57.3%, 22.7%)" stroke-width="1.5"></path><path d="M1441.93 537.92L1441.93 537.92" stroke="hsl(209.39999999999998, 57.3%, 22.7%)" stroke-width="1.5"></path><path d="M1441.93 537.92L1406.49 650.69" stroke="hsl(209.39999999999998, 57.3%, 22.7%)" stroke-width="1.5"></path><path d="M1441.93 537.92L1608.1 488.89" stroke="hsl(209.39999999999998, 57.3%, 22.7%)" stroke-width="1.5"></path><path d="M1441.93 537.92L1433.7 340.7" stroke="hsl(209.39999999999998, 57.3%, 22.7%)" stroke-width="1.5"></path><path d="M1441.93 537.92L1596.1 666.61" stroke="hsl(209.39999999999998, 57.3%, 22.7%)" stroke-width="1.5"></path><path d="M1406.49 650.69L1406.49 650.69" stroke="hsl(209.39999999999998, 57.3%, 22.7%)" stroke-width="1.5"></path><path d="M1608.1 488.89L1608.1 488.89" stroke="hsl(209.39999999999998, 57.3%, 22.7%)" stroke-width="1.5"></path><path d="M1596.1 666.61L1596.1 666.61" stroke="hsl(209.39999999999998, 57.3%, 22.7%)" stroke-width="1.5"></path><path d="M1596.1 666.61L1608.1 488.89" stroke="hsl(209.39999999999998, 57.3%, 22.7%)" stroke-width="1.5"></path><path d="M1596.1 666.61L1406.49 650.69" stroke="hsl(209.39999999999998, 57.3%, 22.7%)" stroke-width="1.5"></path><circle r="25" cx="-74.86" cy="678.14" fill="url(#SvgjsRadialGradient1007)"></circle><circle r="25" cx="355.46" cy="684.65" fill="url(#SvgjsRadialGradient1007)"></circle><circle r="25" cx="825.62" cy="556.72" fill="url(#SvgjsRadialGradient1007)"></circle><circle r="25" cx="998.25" cy="223.62" fill="url(#SvgjsRadialGradient1007)"></circle><circle r="25" cx="992.83" cy="690.15" fill="url(#SvgjsRadialGradient1007)"></circle><circle r="25" cx="1301.85" cy="252.76" fill="url(#SvgjsRadialGradient1007)"></circle><circle r="25" cx="1587.26" cy="-59.26" fill="url(#SvgjsRadialGradient1007)"></circle><circle r="25" cx="1582.93" cy="40.94" fill="url(#SvgjsRadialGradient1007)"></circle><circle r="5" cx="-103.43" cy="497.41" fill="#8996a3"></circle><circle r="5" cx="80.74" cy="539.25" fill="#8996a3"></circle><circle r="5" cx="58.42" cy="649.33" fill="#8996a3"></circle><circle r="5" cx="191.05" cy="698.02" fill="#8996a3"></circle><circle r="5" cx="343.87" cy="516.71" fill="#8996a3"></circle><circle r="5" cx="547.06" cy="491.49" fill="#8996a3"></circle><circle r="5" cx="639.81" cy="380.86" fill="#8996a3"></circle><circle r="5" cx="696.15" cy="674.16" fill="#8996a3"></circle><circle r="5" cx="835.7" cy="386.76" fill="#8996a3"></circle><circle r="5" cx="810.36" cy="695.65" fill="#8996a3"></circle><circle r="5" cx="956.03" cy="365.68" fill="#8996a3"></circle><circle r="5" cx="1130.18" cy="195.02" fill="#8996a3"></circle><circle r="5" cx="1152.81" cy="373" fill="#8996a3"></circle><circle r="5" cx="1137.68" cy="653.15" fill="#8996a3"></circle><circle r="5" cx="1309" cy="-88.13" fill="#8996a3"></circle><circle r="5" cx="1287.32" cy="43.01" fill="#8996a3"></circle><circle r="5" cx="1295.7" cy="389.73" fill="#8996a3"></circle><circle r="5" cx="1400.14" cy="73.13" fill="#8996a3"></circle><circle r="5" cx="1449.18" cy="249.39" fill="#8996a3"></circle><circle r="5" cx="1433.7" cy="340.7" fill="#8996a3"></circle><circle r="5" cx="1441.93" cy="537.92" fill="#8996a3"></circle><circle r="5" cx="1406.49" cy="650.69" fill="#8996a3"></circle><circle r="5" cx="1608.1" cy="488.89" fill="#8996a3"></circle><circle r="5" cx="1596.1" cy="666.61" fill="#8996a3"></circle></g><defs><mask id="SvgjsMask1006"><rect width="1440" height="560" fill="#ffffff"></rect></mask><radialGradient id="SvgjsRadialGradient1007"><stop stop-color="#ffffff" offset="0.1"></stop><stop stop-color="rgba(19, 45, 70, 1)" offset="0.2"></stop><stop stop-color="rgba(19, 45, 70, 0)" offset="1"></stop></radialGradient></defs></svg>